<svg width="365" height="691" viewBox="0 0 365 691" fill="none" xmlns="http://www.w3.org/2000/svg">
<path d="M65.4504 51.3775L124.982 44.1616L179.101 36.08L231.417 44.1616L292.752 51.3775L312.596 444.646H54.6265L65.4504 51.3775Z" fill="#666666"/>
<ellipse cx="185.848" cy="672.021" rx="105.966" ry="18.9789" fill="black"/>
<path d="M182.709 176.79L182.709 673.405" stroke="black" stroke-width="5"/>
<path d="M109.735 63.1814H109.949L110.155 63.1213L138.816 54.7541C142.442 53.6956 144.934 50.3717 144.934 46.5947V3C144.934 2.17157 145.606 1.5 146.434 1.5H169.713H195.911C196.74 1.5 197.411 2.17157 197.411 3V46.1342C197.411 50.1699 200.249 53.6492 204.202 54.4606L218.488 57.3929L218.495 57.3944L227.515 59.1984L236.535 61.0024L236.638 61.023L236.743 61.029L250.283 61.8076C260.586 62.4 266.99 73.2617 262.52 82.5638L244.962 119.102C243.41 122.332 242.181 125.707 241.291 129.179L225.475 190.9C223.628 198.109 224.574 205.749 228.122 212.289L251.746 255.839L251.789 255.917L251.84 255.99L266.995 277.414C270.881 282.909 273.898 288.97 275.938 295.384L284.099 321.04L287.768 334.136C290.105 342.475 291.817 350.977 292.891 359.57L293.056 360.89V375.161L292.253 383.995C291.616 391.002 289.522 397.798 286.106 403.948L282.456 410.517L276.442 419.25C273.737 423.179 269.271 425.525 264.5 425.525H94.3441C86.6446 425.525 80.2877 419.508 79.8658 411.82L76.3687 348.092C75.3926 330.306 79.1612 312.58 87.2884 296.73L108.271 255.808L108.284 255.783L108.296 255.758L128.336 212.795C131.566 205.871 131.983 197.964 129.5 190.738L111.82 139.287C109.482 132.481 106.411 125.948 102.664 119.804L81.5742 85.2326C75.6799 75.5702 82.6344 63.1814 93.9527 63.1814H109.735Z" fill="white" stroke="black" stroke-width="3"/>
<path d="M245.849 46.9037L292.753 52.3156L312.597 447.388H245.849V46.9037Z" fill="black"/>
<path d="M115.963 46.9037L65.4511 52.3156L47.4112 447.388H115.963V46.9037Z" fill="black"/>
<path d="M246.265 161.527L243.088 61.8357H282.103L246.265 161.527Z" fill="white" stroke="black"/>
<path d="M201.488 38.3984L280.61 61.8663L266.07 94.8779L237.997 59.9724L237.667 59.5619L237.153 59.448L210.613 53.5691C208.514 53.1044 206.782 51.6324 205.983 49.637L201.488 38.3984Z" fill="white" stroke="black" stroke-width="3"/>
<path d="M140.724 40.3083L80.6304 62.0088L90.0405 72.9872L90.2181 73.1944L90.3113 73.4508L96.2953 89.9068L109.192 62.501L109.46 61.9324L110.053 61.7243L134.017 53.3128C135.976 52.6252 137.488 51.0432 138.087 49.0555L140.724 40.3083Z" fill="white" stroke="black" stroke-width="3"/>
<path d="M247.118 185.598L244.038 62.5H284.969L247.118 185.598Z" fill="white" stroke="black" stroke-width="3"/>
<path d="M285.537 50.512L316.204 54.1199L365 346.365H309L304 197.5L285.537 50.512Z" fill="black"/>
<path d="M87.6052 48.2985L44.1754 52.4994L-1.69462e-05 341.819L50.4875 343.377L54.9952 197.324L87.6052 48.2985Z" fill="black"/>
<circle cx="108.746" cy="212.87" r="3.60797" fill="white"/>
<circle cx="108.746" cy="245.342" r="3.60797" fill="white"/>
<circle cx="108.746" cy="277.814" r="3.60797" fill="white"/>
<path d="M114.462 62.5H78.0212L114.462 182.893V62.5Z" fill="white" stroke="black" stroke-width="3"/>
</svg>
