<svg width="52" height="46" viewBox="0 0 52 46" fill="none" xmlns="http://www.w3.org/2000/svg">
<path d="M19.1025 37.5623L8.29404 39.1126L15.9384 33.8546L21.9056 31.8061L25.1992 28.6269L27.9845 23.8178L30.7799 18.4686L34.113 13.1893L37.1602 8.4085C37.6454 7.64743 38.2557 6.97394 38.9656 6.41654L46.8306 0.240539C47.0749 0.0487316 47.4331 0.123672 47.5799 0.397313L50.2593 5.38894C51.3908 7.49689 51.9614 9.8603 51.9165 12.2523C51.9006 13.095 51.7576 13.9305 51.4924 14.7305L48.1361 24.8527C47.2174 27.6232 46.7223 30.5164 46.6675 33.4346L46.5757 38.3161L46.4658 44.1571L46.4515 44.9169L46.4399 45.5342L44.6264 45.5001L44.638 44.8828L44.6523 44.123L44.9469 28.4581L44.7424 22.8072C44.6852 21.2247 44.0471 19.7188 42.9499 18.577C41.7291 17.3066 39.6148 17.6488 38.8571 19.2394L37.619 21.8382L29.8553 38.9778C28.4162 41.9861 27.4625 42.9954 26.2572 43.8123C24.7103 44.8608 22.8334 45.3449 20.9646 45.3485C14.7759 45.3603 0.808983 45.3685 0.100695 44.9004C-0.754385 44.2826 4.55363 41.3334 5.56969 40.6818C7.20633 39.6323 7.75161 39.2962 8.29404 39.1126C9.95098 36.983 21.0104 35.0303 21.8447 35.046C22.7111 35.0623 24.0109 39.0636 24.5142 39.6114C25.0496 40.1599 25.3084 40.909 25.2905 41.8587L25.2602 43.4733C25.4515 43.5403 21.6881 38.6626 24.9352 42.6665C25.4165 42.6756 20.3332 37.6198 20.7367 36.6456C21.1723 35.6721 18.8778 39.2683 19.1025 37.5623Z" fill="#F3B9D5"/>
</svg>
