<svg width="358" height="691" viewBox="0 0 358 691" fill="none" xmlns="http://www.w3.org/2000/svg">
<path d="M64.9435 51.3775L124.475 44.1616L178.595 36.08L230.91 44.1616L292.246 51.3775L309 438H51.5L64.9435 51.3775Z" fill="#666666"/>
<ellipse cx="185.341" cy="672.021" rx="105.966" ry="18.9789" fill="black"/>
<path d="M182.202 176.79L182.202 673.405" stroke="black" stroke-width="5"/>
<path d="M109.228 63.1814H109.442L109.648 63.1213L138.309 54.7541C141.935 53.6956 144.427 50.3717 144.427 46.5947V3C144.427 2.17157 145.099 1.5 145.927 1.5H169.206H195.404C196.233 1.5 196.904 2.17157 196.904 3V46.1342C196.904 50.1699 199.742 53.6492 203.695 54.4606L217.981 57.3929L217.988 57.3944L227.008 59.1984L236.028 61.0024L236.131 61.023L236.236 61.029L249.776 61.8076C260.079 62.4 266.483 73.2617 262.013 82.5638L244.456 119.102C242.904 122.332 241.674 125.707 240.784 129.179L224.969 190.9C223.121 198.109 224.067 205.749 227.615 212.289L251.24 255.839L251.282 255.917L251.333 255.99L266.488 277.414C270.374 282.909 273.391 288.97 275.431 295.384L283.592 321.04L287.262 334.136C289.598 342.475 291.31 350.977 292.385 359.57L292.55 360.89V375.161L291.747 383.995C291.11 391.002 289.016 397.798 285.599 403.948L281.949 410.517L275.936 419.25C273.23 423.179 268.764 425.525 263.994 425.525H93.8372C86.1378 425.525 79.7809 419.508 79.359 411.82L75.8618 348.092C74.8858 330.306 78.6544 312.58 86.7816 296.73L107.764 255.808L107.777 255.783L107.789 255.758L127.829 212.795C131.059 205.871 131.476 197.964 128.993 190.738L111.314 139.287C108.975 132.481 105.905 125.948 102.157 119.804L81.0673 85.2326C75.1731 75.5702 82.1276 63.1814 93.4459 63.1814H109.228Z" fill="white" stroke="black" stroke-width="3"/>
<path d="M245.342 45.5L293 50.5L312.089 443.781H245.342V45.5Z" fill="#F3B9D5"/>
<path d="M115.455 45L64.9435 48.7079L46.9037 443.781H115.455V45Z" fill="#F3B9D5"/>
<path d="M242.065 61.3357H282.308L245.342 164.163L242.065 61.3357Z" fill="black"/>
<path d="M282.162 60.9125L265.942 97.7412L236.322 60.9125L209.404 54.95C207.034 54.4249 205.03 52.8518 203.957 50.6737L195.5 33.5L282.162 60.9125Z" fill="black"/>
<path d="M77.5713 61.3357L88.395 73.9634L95.611 93.8073L110.043 63.1397L134.688 54.489C136.707 53.7803 138.358 52.2925 139.272 50.3579L147 34L77.5713 61.3357Z" fill="black"/>
<path d="M116.01 61.3357H75.7677L116.01 158.751V61.3357Z" fill="black"/>
<path d="M243.538 93.8074H286.834L245.342 194.831L243.538 93.8074Z" fill="black"/>
<path d="M115.455 93.8074H68.5515L115.455 193.027V93.8074Z" fill="black"/>
<path d="M287 50L321 53L357.189 344.561H306.678V198.438L287 50Z" fill="#F3B9D5"/>
<path d="M80 47.5L35.5 51L-0.000176742 342.756L50.5112 342.904L50.9389 196.782L80 47.5Z" fill="#F3B9D5"/>
<circle cx="108.239" cy="212.87" r="3.60797" fill="black"/>
<circle cx="108.239" cy="245.342" r="3.60797" fill="black"/>
<circle cx="108.239" cy="277.814" r="3.60797" fill="black"/>
</svg>
