<svg width="174" height="271" viewBox="0 0 174 271" fill="none" xmlns="http://www.w3.org/2000/svg">
<rect x="0.5" y="96.5" width="72" height="75" fill="white" stroke="black"/>
<path d="M58.611 118.797L71.2594 5.17447L56.8357 1.94043V0H174V1.94043L159.576 5.17447V144.67L174 148.766V150.922H121.409V148.766L135.833 144.67V4.31207H76.8069L64.3804 118.15C62.0135 140.717 53.877 152 39.9712 152C34.7935 152 30.1335 150.706 25.9914 148.119C21.9971 145.388 20 141.22 20 135.614C20 131.446 21.1835 128.212 23.5504 125.912C26.0653 123.469 29.2459 122.247 33.0922 122.247C37.0865 122.247 40.2671 123.469 42.634 125.912C45.1489 128.356 46.4063 131.733 46.4063 136.045V143.376C47.294 143.663 47.9597 143.807 48.4035 143.807C50.6225 143.807 52.6196 141.579 54.3948 137.123C56.318 132.668 57.7233 126.559 58.611 118.797Z" fill="#F3B9D5"/>
<line x1="72.5" y1="123.997" x2="73.5" y2="270.997" stroke="black"/>
</svg>
