<svg width="151" height="271" viewBox="0 0 151 271" fill="none" xmlns="http://www.w3.org/2000/svg">
<rect x="42.5" y="35.5" width="77" height="71" fill="white" stroke="black"/>
<path d="M149.147 150.112L151 151.91C145.596 157.303 138.108 160 128.535 160C119.58 160 112.787 157.453 108.155 152.36C103.523 147.116 99.8947 139.026 97.2699 128.09L92.4064 106.966C90.2449 97.8277 86.5394 91.0861 81.2899 86.7416C76.1948 82.2472 68.3205 80 57.6672 80H40.066V152.135L55.1196 156.404V158.652H0V156.404L15.0537 152.135V7.86517L0 3.5955V1.34831H55.1196V3.5955L40.066 7.86517V75.7303C60.4463 75.7303 73.2612 66.5918 78.5107 48.3146L83.1426 32.1348C85.9218 21.7978 89.5501 13.8577 94.0276 8.31461C98.6595 2.77154 105.53 0 114.64 0C121.124 0 126.451 1.42322 130.62 4.26966C134.788 7.1161 136.873 11.3858 136.873 17.0786C136.873 21.4232 135.638 24.8689 133.167 27.4157C130.697 29.8127 127.377 31.0112 123.209 31.0112C118.885 31.0112 115.489 29.7378 113.018 27.191C110.548 24.4944 109.313 20.9738 109.313 16.6292V7.86517C108.232 7.26592 106.92 6.9663 105.376 6.9663C98.2735 6.9663 92.4836 15.2809 88.0061 31.9101L83.6058 48.3146C79.7459 62.2472 72.3349 71.4607 61.3727 75.9551H65.773C81.2127 75.9551 92.7924 78.2772 100.512 82.9214C108.386 87.4157 113.636 95.0562 116.261 105.843L121.356 126.292C123.672 136.03 125.988 142.996 128.304 147.191C130.774 151.386 134.402 153.483 139.189 153.483C142.277 153.483 145.596 152.36 149.147 150.112Z" fill="#F3B9D5"/>
<line x1="74.5" y1="106.994" x2="76.5" y2="270.994" stroke="black"/>
</svg>
