<svg width="158" height="271" viewBox="0 0 158 271" fill="none" xmlns="http://www.w3.org/2000/svg">
<line x1="46.5" y1="104" x2="46.5" y2="271" stroke="black"/>
<rect x="46.5" y="39.5" width="67" height="64" fill="white" stroke="black"/>
<path d="M39.0537 6.5043L87.7034 83.8829L137.023 6.5043L118.277 2.24285V0H158V2.24285L142.155 6.5043L89.935 88.8171V150.496L103.771 154.757V157H51.5508V154.757L66.0565 150.496V88.8171L13.8362 6.5043L0 2.24285V0H53.7825V2.24285L39.0537 6.5043Z" fill="#F3B9D5"/>
<path d="M86.7162 69.3697C86.898 69.5775 87.2139 69.5986 87.4217 69.4167L90.8083 66.4534C91.0161 66.2716 91.0372 65.9557 90.8553 65.7479C90.6735 65.5401 90.3576 65.519 90.1498 65.7009L87.1395 68.3349L84.5055 65.3246C84.3236 65.1168 84.0078 65.0957 83.7999 65.2776C83.5921 65.4594 83.5711 65.7753 83.7529 65.9831L86.7162 69.3697ZM88.5118 40.2317L86.5936 69.0072L87.5914 69.0737L89.5096 40.2983L88.5118 40.2317Z" fill="black"/>
<line x1="113.5" y1="84" x2="113.5" y2="271" stroke="black"/>
</svg>
