<svg width="1440" height="488" viewBox="0 0 1440 488" fill="none" xmlns="http://www.w3.org/2000/svg">
<path d="M1193.11 345.713L1214.14 339.477V128.094L1193.11 121.857V118.575H1250.7L1378.49 299.104V127.437L1357.46 121.529V118.575H1406.31V121.529L1385.28 127.437V348.339H1375.25L1220.93 131.048V339.477L1241.96 345.713V348.339H1193.11V345.713Z" fill="#F3B9D5"/>
<path d="M953.846 233.457C953.846 198.008 963.875 169.67 983.933 148.444C1003.99 127.218 1030.3 116.605 1062.87 116.605C1095.22 116.605 1121.43 127.218 1141.49 148.444C1161.76 169.67 1171.9 198.008 1171.9 233.457C1171.9 269.125 1161.76 297.572 1141.49 318.798C1121.43 339.805 1095.22 350.308 1062.87 350.308C1030.3 350.308 1003.99 339.805 983.933 318.798C963.875 297.572 953.846 269.125 953.846 233.457ZM990.404 233.785C990.404 269.672 996.982 297.244 1010.14 316.5C1023.51 335.757 1041.09 345.385 1062.87 345.385C1084.66 345.385 1102.13 335.757 1115.28 316.5C1128.44 297.244 1135.02 269.672 1135.02 233.785C1135.02 197.679 1128.44 169.998 1115.28 150.742C1102.13 131.267 1084.66 121.529 1062.87 121.529C1041.09 121.529 1023.51 131.267 1010.14 150.742C996.982 169.998 990.404 197.679 990.404 233.785Z" fill="#F3B9D5"/>
<path d="M910.7 128.094V338.82L930.758 345.057V348.339H855.378V345.057L876.407 338.82V128.094L855.378 121.857V118.575H930.758V121.857L910.7 128.094Z" fill="#F3B9D5"/>
<path d="M613.994 345.057L635.023 338.82V128.094L613.994 121.857V118.575H690.992V121.857L669.963 128.094V227.877H787.077V128.094L766.048 121.857V118.575H842.723V121.857L821.694 128.094V338.82L842.723 345.057V348.339H766.048V345.057L787.077 338.82V234.77H669.963V338.82L690.992 345.057V348.339H613.994V345.057Z" fill="#F3B9D5"/>
<path d="M435.132 341.446V294.837H440.955C443.328 304.903 447.102 313.546 452.278 320.767C457.455 327.77 463.386 333.021 470.072 336.522C476.758 339.805 483.013 342.102 488.836 343.415C494.875 344.728 501.13 345.385 507.6 345.385C525.502 345.385 539.521 341.008 549.658 332.255C559.795 323.503 564.863 311.248 564.863 295.493C564.863 288.053 563.677 281.817 561.305 276.784C559.148 271.751 555.158 267.484 549.334 263.983C543.727 260.263 538.227 257.418 532.835 255.449C527.443 253.479 519.247 250.853 508.247 247.571C502.64 245.82 498.542 244.617 495.954 243.96C493.581 243.085 489.807 241.772 484.63 240.022C479.454 238.271 475.572 236.849 472.984 235.755C470.611 234.442 467.268 232.691 462.955 230.503C458.857 228.315 455.729 226.236 453.572 224.266C451.631 222.078 449.259 219.452 446.455 216.389C443.867 213.325 441.926 210.152 440.632 206.87C439.338 203.588 438.151 199.758 437.073 195.382C436.21 191.005 435.779 186.41 435.779 181.596C435.779 162.339 442.034 146.694 454.543 134.658C467.052 122.623 485.601 116.605 510.188 116.605C530.894 116.605 549.011 121.748 564.54 132.032L578.128 122.514L581.363 125.796V172.405H575.539C573.383 162.339 569.932 153.805 565.187 146.803C560.442 139.582 554.942 134.33 548.687 131.048C542.648 127.547 536.933 125.14 531.541 123.827C526.149 122.295 520.649 121.529 515.041 121.529C499.297 121.529 486.679 125.796 477.189 134.33C467.915 142.864 463.278 154.024 463.278 167.81C463.278 173.281 464.141 178.204 465.866 182.581C467.807 186.957 469.964 190.458 472.337 193.084C474.709 195.71 478.699 198.336 484.307 200.962C489.914 203.588 494.552 205.557 498.218 206.87C502.1 208.183 508.139 210.152 516.335 212.778C526.041 215.842 533.697 218.468 539.305 220.656C544.913 222.625 551.491 225.689 559.04 229.846C566.804 233.785 572.736 238.052 576.833 242.647C581.147 247.024 584.814 252.823 587.833 260.044C590.853 267.046 592.362 274.924 592.362 283.677C592.362 303.59 585.568 319.673 571.981 331.927C558.393 344.181 538.011 350.308 510.835 350.308C488.405 350.308 468.886 345.166 452.278 334.881L438.367 344.728L435.132 341.446Z" fill="#F3B9D5"/>
<path d="M160.145 233.129H88.3234V338.82L119.058 345.057V348.339H32.3545V345.057L53.3833 338.82V126.453L32.3545 121.529V118.575H202.202V158.948H196.702L181.821 125.14H88.3234V226.236H160.145L166.939 200.634H172.115V258.731H166.939L160.145 233.129Z" fill="#F3B9D5"/>
<path d="M303.174 118.575L394.083 338.82L414.788 345.057V348.339H336.82V345.057L358.172 338.82L330.996 272.189H233.294L204.824 338.82L233.294 345.057V348.339H175.707V345.057L197.706 338.82L292.498 118.575H303.174ZM283.439 154.681L236.205 265.296H328.085L283.439 154.681Z" fill="#F3B9D5"/>
<path d="M1408.3 17L1409.12 472.609" stroke="black" stroke-width="2"/>
<path d="M1354.96 16.6274L1357.05 473" stroke="black" stroke-width="2"/>
<path d="M1354 17L1409 17" stroke="black" stroke-width="2" stroke-dasharray="2 2"/>
<path d="M1357 473H1409" stroke="black" stroke-width="2" stroke-dasharray="2 2"/>
<line x1="1386" y1="18" x2="1386" y2="473" stroke="#040404" stroke-width="2"/>
<line x1="1377" y1="18" x2="1377" y2="473" stroke="#040404" stroke-width="2"/>
<path d="M843.533 226.022L616.837 226.022" stroke="black" stroke-width="2"/>
<path d="M843.533 237.022L615.851 237.022" stroke="black" stroke-width="2"/>
<line x1="875" y1="14" x2="875" y2="473" stroke="black" stroke-width="2"/>
<line x1="911" y1="14" x2="911" y2="473" stroke="black" stroke-width="2"/>
<line x1="931" y1="14" x2="931" y2="473" stroke="black" stroke-width="2"/>
<line x1="856" y1="14" x2="856" y2="473" stroke="black" stroke-width="2"/>
<path d="M169.297 267.654L201.39 481" stroke="black" stroke-width="2"/>
<path d="M341.352 364.499L290.098 487.5" stroke="black" stroke-width="2"/>
<path d="M1440.5 349.5L6.93955e-05 349.5" stroke="black" stroke-width="2"/>
<line x1="1440" y1="116" x2="-11.9986" y2="118" stroke="black" stroke-width="2"/>
<path d="M855 16L930 16" stroke="black" stroke-width="2" stroke-dasharray="2 2"/>
<path d="M855 471H930" stroke="black" stroke-width="2" stroke-dasharray="2 2"/>
<path d="M566.57 171L559.689 156.167C559.022 154.728 558.17 153.384 557.153 152.167L554.856 149.419C548.816 142.191 540.992 136.673 532.17 133.418L530.238 132.705C526.223 131.224 521.982 130.466 517.711 130.466L511.489 130.466C499.689 130.466 488.472 135.506 480.651 144.322V144.322C477.253 148.152 475.378 153.102 475.378 158.239L475.378 161.059C475.378 174.044 482.087 186.137 493.111 193.02L498.137 196.158C499.871 197.241 501.731 198.108 503.674 198.739L548.35 213.243C549.142 213.5 549.912 213.819 550.655 214.196L565.513 221.733C572.997 225.529 579.616 230.843 584.949 237.336V237.336C592.455 246.475 597.632 257.299 600.029 268.871L600.574 271.5L600.634 272.033C602.218 286.181 600.767 300.489 596.379 314V314V314C592.101 326.872 583.196 337.671 571.392 344.302L561.25 350" stroke="black" stroke-width="2" stroke-dasharray="2 2"/>
<path d="M1401.4 11.8804L1403.13 7.92021H1356.56V3.96005H1403.13L1401.4 -0.000111818L1408.3 5.94013L1401.4 11.8804Z" fill="black"/>
<path d="M1360.01 11.8804L1358.28 7.92021H1404.85V3.96005H1358.28L1360.01 -0.000111818L1353.11 5.94013L1360.01 11.8804Z" fill="black"/>
<path d="M844.506 237.893L845.781 238.433L845.861 224.071L847.138 224.079L847.058 238.44L848.338 237.915L846.41 240.032L844.506 237.893Z" fill="black"/>
<path d="M844.577 225.127L845.857 224.603L845.777 238.964L847.054 238.971L847.134 224.61L848.408 225.149L846.504 223.011L844.577 225.127Z" fill="black"/>
<path d="M610.936 237.894L612.21 238.433L612.29 224.071L613.567 224.079L613.487 238.44L614.767 237.916L612.839 240.032L610.936 237.894Z" fill="black"/>
<path d="M611.006 225.128L612.286 224.603L612.206 238.964L613.483 238.972L613.563 224.61L614.837 225.15L612.934 223.011L611.006 225.128Z" fill="black"/>
<path d="M910.803 11.8804L912.22 7.92021H873.965V3.96005H912.22L910.803 -0.000111818L916.47 5.94013L910.803 11.8804Z" fill="black"/>
<path d="M876.798 11.8804L875.381 7.92021H913.636V3.96005H875.381L876.798 -0.000111818L871.131 5.94013L876.798 11.8804Z" fill="black"/>
<path d="M910.819 11.8804L912.232 7.92021H874.088V3.96005H912.232L910.819 -0.000111818L916.47 5.94013L910.819 11.8804Z" fill="black"/>
<path d="M910.819 11.8804L912.232 7.92021H874.088V3.96005H912.232L910.819 -0.000111818L916.47 5.94013L910.819 11.8804Z" fill="black"/>
<path d="M874.154 482.46L874.877 479.973H855.361V477.486H874.877L874.154 475L877.045 478.73L874.154 482.46Z" fill="black"/>
<path d="M857.003 482.46L856.346 479.973H874.088V477.486H856.346L857.003 475L854.375 478.73L857.003 482.46Z" fill="black"/>
<path d="M357.825 281.391L356.898 281.758C343.625 287.028 333.243 297.859 328.46 311.426C324.605 322.365 324.67 334.299 328.646 345.141L329.249 346.785C333.585 358.611 342.179 368.327 353.324 374.001C367.024 380.977 383.32 381.086 397.254 374.405C409.427 368.568 418.932 358.022 423.454 345.209L423.664 344.613C427.366 334.124 427.513 322.711 424.082 312.177C419.236 297.302 407.746 285.632 393.046 280.654L392.499 280.469C381.221 276.651 368.944 276.977 357.825 281.391Z" stroke="black" stroke-width="2"/>
<path d="M153.271 195.455L152.597 195.723C142.949 199.553 135.403 207.425 131.927 217.287C129.124 225.238 129.172 233.912 132.062 241.792L132.5 242.987C135.652 251.583 141.899 258.645 149.999 262.77C159.957 267.84 171.802 267.92 181.93 263.063C190.778 258.82 197.687 251.155 200.974 241.842L201.126 241.409C203.817 233.785 203.924 225.49 201.43 217.832C197.908 207.02 189.556 198.538 178.871 194.92L178.474 194.786C170.276 192.01 161.353 192.247 153.271 195.455Z" stroke="black" stroke-width="2"/>
</svg>
