<svg width="188" height="431" viewBox="0 0 188 431" fill="none" xmlns="http://www.w3.org/2000/svg">
<rect x="2.48615" y="2.51817" width="180.556" height="318.039" rx="2.5" transform="matrix(0.999974 0.00728193 -0.00551388 0.999985 1.7952 106.528)" fill="white" stroke="black" stroke-width="5"/>
<path d="M102.281 127.179C102.256 131.856 98.4225 135.624 93.7147 135.59C89.0068 135.556 85.2157 131.732 85.2415 127.055C85.2673 122.378 89.1003 118.609 93.8081 118.644C98.516 118.678 102.307 122.502 102.281 127.179Z" fill="white" stroke="black"/>
<path d="M65.7163 37.6337L65.0362 25.5831C64.9083 23.317 65.2353 21.049 65.998 18.9126L68.3897 12.2135C70.6885 5.77421 78.0147 2.69789 84.2307 5.56171C85.912 6.33631 87.3378 7.5747 88.3405 9.13118L100.91 28.6434L107.285 45.9683C108.066 48.0923 108.28 50.3826 107.906 52.613L95.3972 127.14C95.2803 127.837 94.498 128.195 93.8937 127.828L88.732 124.7L83.5465 110.377L77.3966 77.1855L67.5101 47.113C66.5013 44.0444 65.8983 40.8576 65.7163 37.6337Z" stroke="black"/>
<path d="M101.281 127.171C101.259 131.291 97.8807 134.62 93.7202 134.59C89.5597 134.56 86.2188 131.182 86.2415 127.062C86.2642 122.942 89.6421 119.613 93.8026 119.644C97.9631 119.674 101.304 123.052 101.281 127.171Z" fill="white" stroke="black" stroke-width="3"/>
<path d="M65.7163 37.6337L65.0362 25.5831C64.9083 23.317 65.2353 21.049 65.998 18.9126L68.3897 12.2135C70.6885 5.77421 78.0147 2.69789 84.2307 5.56171C85.912 6.33631 87.3378 7.5747 88.3405 9.13118L100.91 28.6434L107.285 45.9683C108.066 48.0923 108.28 50.3826 107.906 52.613L95.3972 127.14C95.2803 127.837 94.498 128.195 93.8937 127.828L88.732 124.7L83.5465 110.377L77.3966 77.1855L67.5101 47.113C66.5013 44.0444 65.8983 40.8576 65.7163 37.6337Z" stroke="black" stroke-width="3"/>
</svg>
