<svg width="188" height="432" viewBox="0 0 188 432" fill="none" xmlns="http://www.w3.org/2000/svg">
<rect x="2.48615" y="2.51817" width="180.556" height="318.039" rx="2.5" transform="matrix(0.999974 0.00728193 -0.00551388 0.999985 1.7952 106.982)" fill="white" stroke="black" stroke-width="5"/>
<path d="M102.281 127.633C102.256 132.31 98.4225 136.078 93.7147 136.044C89.0068 136.01 85.2157 132.186 85.2415 127.509C85.2673 122.832 89.1003 119.063 93.8081 119.098C98.516 119.132 102.307 122.956 102.281 127.633Z" fill="white" stroke="black"/>
<path d="M65.7163 38.0878L65.0362 26.0372C64.9083 23.7711 65.2353 21.5031 65.998 19.3667L68.3897 12.6676C70.6885 6.22831 78.0147 3.15199 84.2307 6.01581C85.912 6.79041 87.3378 8.0288 88.3405 9.58529L100.91 29.0975L107.285 46.4224C108.066 48.5464 108.28 50.8367 107.906 53.0671L95.3972 127.595C95.2803 128.291 94.498 128.649 93.8937 128.283L88.732 125.154L83.5465 110.831L77.3966 77.6396L67.5101 47.5671C66.5013 44.4985 65.8983 41.3117 65.7163 38.0878Z" stroke="black"/>
<path d="M101.281 127.626C101.259 131.746 97.8807 135.074 93.7202 135.044C89.5597 135.014 86.2188 131.636 86.2415 127.516C86.2642 123.396 89.6421 120.067 93.8026 120.098C97.9631 120.128 101.304 123.506 101.281 127.626Z" fill="white" stroke="black" stroke-width="3"/>
<path d="M78.8714 77.3685L78.853 77.2691L78.8214 77.173L68.935 47.1005C67.9671 44.1563 67.3884 41.0987 67.2139 38.0055L66.5338 25.9549C66.4171 23.8888 66.7153 21.8208 67.4107 19.873L69.8023 13.1739C71.8053 7.56325 78.1887 4.88282 83.6048 7.3781C85.0265 8.03308 86.2321 9.08023 87.0799 10.3963L99.5592 29.7692L105.877 46.9386C106.568 48.8175 106.758 50.8436 106.427 52.8166L94.0398 126.618L89.9617 124.146L84.9988 110.439L78.8714 77.3685ZM94.6697 127L94.6684 126.999L94.6697 127Z" stroke="white" stroke-width="3"/>
</svg>
