<svg width="192" height="435" viewBox="0 0 192 435" fill="none" xmlns="http://www.w3.org/2000/svg">
<rect x="2.79688" y="101.54" width="187.856" height="331.71" rx="5" transform="rotate(0.483035 2.79688 101.54)" fill="black"/>
<circle cx="98.122" cy="137.04" r="9.3082" transform="rotate(0.483035 98.122 137.04)" fill="white"/>
<path d="M69.5101 38.929L68.8485 26.4933C68.7286 24.2386 69.059 21.9825 69.8205 19.8568L72.3005 12.9342C74.6344 6.4194 82.0599 3.31644 88.3353 6.23357C90.0304 7.02157 91.465 8.27777 92.4698 9.8541L105.134 29.7212L111.556 47.4148C112.324 49.5306 112.53 51.8095 112.153 54.0286L99.2591 129.894C99.1405 130.592 98.3551 130.949 97.7515 130.58L92.527 127.385L86.1633 109.081L81.2021 79.0563L71.2592 48.3675C70.2687 45.3106 69.6808 42.1378 69.5101 38.929Z" stroke="black" stroke-width="3"/>
</svg>
