<svg width="1296" height="714" viewBox="0 0 1296 714" fill="none" xmlns="http://www.w3.org/2000/svg">
<path d="M314 54L318 47.0306C318.884 45.4907 319.535 43.8285 319.933 42.098L321.235 36.4239C321.739 34.2312 321.745 31.9537 321.255 29.7581V29.7581C320.47 26.2469 317.993 23.3545 314.645 22.039L313.879 21.7381C312.658 21.2585 311.316 21.1791 310.047 21.5115L308.461 21.927C306.838 22.3521 305.319 23.1063 304 24.1429V24.1429" stroke="black" stroke-width="6"/>
<path d="M942 59L946.346 49.823C947.001 48.438 947.478 46.975 947.763 45.4694L949.307 37.3186C949.765 34.8994 949.771 32.4163 949.325 29.9949L949.159 29.0942C948.431 25.1467 945.854 21.7877 942.23 20.062V20.062C940.797 19.3796 939.158 19.2672 937.646 19.7474L936.138 20.226C934.72 20.6763 933.37 21.3208 932.128 22.1411L932 22.2258" stroke="black" stroke-width="6"/>
<path d="M88.5 29L88.5 625" stroke="black" stroke-width="17"/>
<line x1="1192.5" y1="29.9859" x2="1193.5" y2="632.986" stroke="black" stroke-width="17"/>
<line y1="-8.5" x2="203.628" y2="-8.5" transform="matrix(-0.886323 0.463067 -0.538428 -0.842671 1283.41 582.462)" stroke="black" stroke-width="17"/>
<line y1="-8.5" x2="203.628" y2="-8.5" transform="matrix(-0.886323 0.463067 -0.538428 -0.842671 184.48 571.583)" stroke="black" stroke-width="17"/>
<path d="M1201 30L80 29" stroke="#414141" stroke-width="10"/>
<ellipse cx="1285.41" cy="602.409" rx="10.0267" ry="16.32" fill="black"/>
<ellipse cx="186.486" cy="591.529" rx="10.0267" ry="16.32" fill="black"/>
<ellipse cx="1112" cy="693.5" rx="11" ry="20.5" fill="black"/>
<ellipse cx="11" cy="683" rx="11" ry="20" fill="black"/>
<path d="M384.907 107.066H243.446C242.686 107.066 242.204 106.251 242.569 105.585L256.853 79.5228C256.958 79.3322 257.121 79.1808 257.32 79.0916L311.952 54.4994C312.221 54.3783 312.53 54.3822 312.796 54.5099L357.907 76.1817C358.017 76.2345 358.117 76.307 358.201 76.3957L385.633 105.378C386.236 106.016 385.784 107.066 384.907 107.066Z" fill="#FFE5F6" stroke="black" stroke-width="6"/>
<path d="M202.8 125.777L223.576 95.7837C227.807 89.6752 233.78 84.9822 240.716 82.316L256.33 76.3137L267.979 87.4244C274.228 93.3848 281.861 97.6988 290.191 99.9782V99.9782C301.217 102.996 312.828 103.174 323.942 100.495L326.33 99.9201C335.573 97.6927 343.959 92.8006 350.447 85.8506L359.35 76.3137L370.131 78.6708C383.396 81.5711 393.997 91.5224 397.729 104.578V104.578L413.798 379.608C413.851 380.511 413.252 381.323 412.373 381.538V381.538C379.884 389.49 346.638 393.94 313.201 394.812L306 395L290.02 394.631C257.441 393.879 225.046 389.51 193.432 381.602V381.602C192.418 381.349 191.723 380.417 191.768 379.373L202.8 125.777Z" fill="black"/>
<path d="M397 103.005L451.762 239.424C452.424 241.075 451.514 242.936 449.805 243.426L402.802 256.906L397 103.005Z" fill="black"/>
<path d="M202.941 125.535L150.994 239.859C150.238 241.523 151.132 243.47 152.887 243.981L205.387 259.251L202.941 125.535Z" fill="black"/>
<path d="M250.08 83.5801C249.213 82.4948 248.834 81.3763 248.943 80.2244C249.052 79.0725 249.617 78.089 250.637 77.2739C251.651 76.4642 252.731 76.1332 253.879 76.281C255.033 76.4235 256.044 77.0373 256.911 78.1226C257.783 79.2146 258.162 80.3392 258.046 81.4965C257.931 82.6416 257.367 83.6191 256.353 84.4288C255.333 85.2439 254.252 85.5809 253.11 85.4398C251.962 85.292 250.952 84.6721 250.08 83.5801ZM251.233 82.6752C252.111 83.7739 252.991 84.4533 253.874 84.7136C254.764 84.9685 255.55 84.8233 256.233 84.2781C256.915 83.7328 257.227 83.0008 257.168 82.082C257.11 81.1632 256.641 80.1544 255.764 79.0557C254.88 77.9503 253.997 77.2675 253.114 77.0073C252.226 76.7403 251.44 76.8794 250.758 77.4247C250.075 77.9699 249.763 78.7079 249.82 79.6389C249.879 80.5577 250.35 81.5698 251.233 82.6752Z" fill="#F3B9D5"/>
<path d="M252.28 87.6394C251.413 86.5542 251.034 85.4356 251.143 84.2837C251.252 83.1319 251.817 82.1484 252.838 81.3332C253.851 80.5235 254.932 80.1926 256.079 80.3404C257.233 80.4828 258.244 81.0966 259.111 82.1819C259.984 83.2739 260.362 84.3985 260.246 85.5558C260.131 86.701 259.567 87.6784 258.554 88.4881C257.533 89.3032 256.452 89.6402 255.31 89.4991C254.162 89.3513 253.152 88.7314 252.28 87.6394ZM253.433 86.7345C254.311 87.8332 255.191 88.5127 256.075 88.7729C256.964 89.0278 257.751 88.8826 258.433 88.3374C259.116 87.7922 259.427 87.0602 259.369 86.1413C259.31 85.2225 258.842 84.2137 257.964 83.1151C257.081 82.0097 256.198 81.3268 255.314 81.0666C254.426 80.7996 253.64 80.9388 252.958 81.484C252.275 82.0292 251.963 82.7673 252.02 83.6982C252.079 84.617 252.55 85.6291 253.433 86.7345Z" fill="#F3B9D5"/>
<path d="M256.66 92.0582C255.679 91.075 255.179 90.0049 255.161 88.848C255.143 87.6911 255.596 86.6514 256.52 85.7289C257.439 84.8126 258.476 84.3647 259.633 84.3852C260.796 84.3997 261.868 84.8986 262.849 85.8818C263.837 86.8711 264.336 87.9473 264.348 89.1103C264.361 90.2611 263.907 91.2947 262.989 92.2111C262.065 93.1335 261.027 93.5875 259.876 93.573C258.72 93.5525 257.648 93.0475 256.66 92.0582ZM257.707 91.0318C258.7 92.0272 259.65 92.6056 260.557 92.767C261.469 92.9224 262.235 92.6915 262.853 92.0745C263.471 91.4575 263.701 90.6956 263.541 89.7888C263.381 88.882 262.805 87.931 261.812 86.9356C260.812 85.9341 259.859 85.3527 258.953 85.1912C258.04 85.0237 257.275 85.2485 256.657 85.8655C256.038 86.4825 255.809 87.2505 255.968 88.1695C256.128 89.0762 256.708 90.0303 257.707 91.0318Z" fill="#F3B9D5"/>
<path d="M261.14 96.4687C260.055 95.6016 259.439 94.5943 259.291 93.4468C259.143 92.2992 259.477 91.2153 260.292 90.195C261.102 89.1815 262.082 88.6201 263.234 88.5108C264.391 88.3949 265.513 88.7704 266.598 89.6374C267.69 90.5099 268.307 91.5232 268.45 92.6775C268.591 93.8197 268.256 94.8976 267.447 95.9111C266.631 96.9314 265.651 97.4989 264.506 97.6134C263.354 97.7227 262.232 97.3411 261.14 96.4687ZM262.065 95.3314C263.164 96.2092 264.173 96.6775 265.092 96.7363C266.016 96.7883 266.751 96.4731 267.296 95.7907C267.841 95.1083 267.984 94.3255 267.723 93.4423C267.463 92.5591 266.784 91.6787 265.685 90.8009C264.58 89.9178 263.567 89.4468 262.649 89.388C261.723 89.3238 260.988 89.633 260.443 90.3154C259.897 90.9979 259.755 91.7867 260.017 92.682C260.277 93.5652 260.96 94.4483 262.065 95.3314Z" fill="#F3B9D5"/>
<path d="M265.588 100.648C264.378 99.9658 263.608 99.0702 263.279 97.9611C262.949 96.852 263.105 95.7286 263.746 94.591C264.384 93.4609 265.262 92.7498 266.381 92.4576C267.505 92.1578 268.672 92.349 269.882 93.0312C271.1 93.7175 271.871 94.619 272.196 95.7357C272.519 96.8406 272.361 97.958 271.724 99.0881C271.083 100.226 270.206 100.943 269.094 101.239C267.974 101.531 266.806 101.334 265.588 100.648ZM266.319 99.3773C267.544 100.068 268.615 100.369 269.532 100.28C270.452 100.183 271.127 99.7543 271.556 98.9934C271.985 98.2325 272 97.4369 271.602 96.6068C271.204 95.7767 270.392 95.0164 269.167 94.3258C267.935 93.631 266.86 93.3281 265.944 93.4172C265.02 93.502 264.343 93.9248 263.915 94.6858C263.486 95.4467 263.472 96.2481 263.873 97.0899C264.272 97.9201 265.087 98.6825 266.319 99.3773Z" fill="#F3B9D5"/>
<path d="M269.917 102.628C268.625 102.117 267.741 101.334 267.263 100.28C266.786 99.226 266.787 98.0919 267.268 96.8776C267.745 95.6714 268.519 94.8474 269.588 94.4056C270.661 93.9558 271.843 93.9865 273.135 94.4977C274.434 95.0121 275.321 95.8003 275.795 96.8623C276.265 97.9131 276.261 99.0416 275.783 100.248C275.303 101.462 274.532 102.292 273.47 102.737C272.401 103.178 271.216 103.142 269.917 102.628ZM270.468 101.269C271.776 101.787 272.877 101.939 273.773 101.726C274.672 101.506 275.282 100.989 275.604 100.177C275.925 99.3646 275.832 98.5744 275.325 97.8062C274.817 97.038 273.91 96.3951 272.602 95.8776C271.287 95.3569 270.181 95.203 269.285 95.4158C268.382 95.6255 267.769 96.1364 267.447 96.9486C267.126 97.7608 267.221 98.5566 267.734 99.3361C268.241 100.104 269.153 100.749 270.468 101.269Z" fill="#F3B9D5"/>
<path d="M276.007 106.687C274.715 106.176 273.83 105.393 273.353 104.339C272.876 103.285 272.877 102.151 273.358 100.937C273.835 99.7307 274.609 98.9067 275.678 98.465C276.751 98.0151 277.933 98.0458 279.224 98.5571C280.524 99.0714 281.411 99.8596 281.885 100.922C282.354 101.972 282.35 103.101 281.873 104.307C281.392 105.521 280.621 106.351 279.56 106.796C278.491 107.238 277.306 107.201 276.007 106.687ZM276.558 105.329C277.866 105.846 278.967 105.999 279.863 105.786C280.762 105.565 281.372 105.048 281.694 104.236C282.015 103.424 281.922 102.634 281.415 101.866C280.907 101.097 280 100.454 278.692 99.9369C277.377 99.4162 276.271 99.2623 275.375 99.4751C274.471 99.6848 273.859 100.196 273.537 101.008C273.216 101.82 273.311 102.616 273.824 103.395C274.331 104.164 275.242 104.808 276.558 105.329Z" fill="#F3B9D5"/>
<path d="M282.553 108.869C281.213 108.503 280.248 107.822 279.657 106.827C279.067 105.832 278.944 104.705 279.288 103.445C279.63 102.194 280.308 101.29 281.322 100.733C282.339 100.168 283.517 100.068 284.857 100.434C286.205 100.803 287.173 101.489 287.761 102.492C288.344 103.485 288.464 104.607 288.122 105.858C287.778 107.118 287.103 108.027 286.097 108.586C285.082 109.143 283.901 109.237 282.553 108.869ZM282.952 107.458C284.308 107.829 285.42 107.859 286.287 107.549C287.156 107.231 287.706 106.65 287.936 105.807C288.166 104.965 287.987 104.19 287.398 103.482C286.809 102.774 285.836 102.235 284.48 101.864C283.115 101.492 281.999 101.46 281.132 101.77C280.257 102.078 279.704 102.653 279.474 103.496C279.244 104.339 279.426 105.119 280.021 105.837C280.61 106.545 281.587 107.085 282.952 107.458Z" fill="#F3B9D5"/>
<path d="M288.345 110.573C287.005 110.207 286.04 109.526 285.449 108.531C284.859 107.536 284.736 106.409 285.08 105.149C285.422 103.897 286.1 102.993 287.114 102.437C288.131 101.872 289.309 101.772 290.649 102.138C291.997 102.507 292.965 103.192 293.553 104.196C294.136 105.189 294.256 106.311 293.914 107.562C293.57 108.822 292.895 109.731 291.889 110.29C290.874 110.847 289.693 110.941 288.345 110.573ZM288.743 109.162C290.1 109.533 291.212 109.563 292.079 109.253C292.948 108.934 293.498 108.354 293.728 107.511C293.958 106.669 293.779 105.893 293.19 105.186C292.601 104.478 291.628 103.939 290.272 103.568C288.907 103.195 287.791 103.164 286.924 103.474C286.049 103.782 285.496 104.357 285.266 105.2C285.036 106.042 285.218 106.823 285.813 107.541C286.402 108.249 287.379 108.789 288.743 109.162Z" fill="#F3B9D5"/>
<path d="M294.583 112.012C293.197 111.912 292.119 111.431 291.347 110.569C290.576 109.706 290.237 108.624 290.331 107.321C290.425 106.028 290.915 105.01 291.803 104.267C292.691 103.517 293.828 103.191 295.214 103.292C296.608 103.392 297.69 103.878 298.461 104.749C299.224 105.611 299.559 106.689 299.465 107.982C299.371 109.285 298.884 110.308 298.005 111.05C297.117 111.793 295.977 112.113 294.583 112.012ZM294.701 110.551C296.104 110.653 297.2 110.468 297.991 109.996C298.782 109.515 299.21 108.84 299.273 107.968C299.336 107.097 299.01 106.371 298.295 105.791C297.581 105.21 296.522 104.869 295.12 104.767C293.709 104.665 292.608 104.85 291.817 105.322C291.018 105.793 290.587 106.464 290.524 107.335C290.461 108.207 290.79 108.937 291.513 109.527C292.227 110.108 293.29 110.449 294.701 110.551Z" fill="#F3B9D5"/>
<path d="M300.881 113.836C299.493 113.868 298.373 113.491 297.524 112.706C296.674 111.92 296.234 110.875 296.205 109.569C296.175 108.272 296.567 107.212 297.381 106.389C298.194 105.558 299.295 105.126 300.683 105.095C302.081 105.063 303.204 105.444 304.054 106.238C304.895 107.024 305.331 108.065 305.36 109.362C305.39 110.667 305.002 111.732 304.197 112.554C303.384 113.377 302.279 113.805 300.881 113.836ZM300.861 112.37C302.267 112.338 303.341 112.05 304.084 111.506C304.826 110.953 305.187 110.239 305.167 109.366C305.147 108.493 304.754 107.801 303.988 107.291C303.222 106.78 302.136 106.541 300.73 106.573C299.315 106.605 298.237 106.893 297.494 107.438C296.743 107.983 296.378 108.692 296.398 109.565C296.417 110.438 296.815 111.134 297.59 111.653C298.356 112.163 299.447 112.402 300.861 112.37Z" fill="#F3B9D5"/>
<path d="M306.97 113.836C305.582 113.868 304.462 113.491 303.613 112.706C302.763 111.92 302.323 110.875 302.294 109.569C302.264 108.272 302.656 107.212 303.469 106.389C304.283 105.558 305.383 105.126 306.772 105.095C308.17 105.063 309.293 105.444 310.143 106.238C310.984 107.024 311.42 108.065 311.449 109.362C311.479 110.667 311.091 111.732 310.286 112.554C309.473 113.377 308.368 113.805 306.97 113.836ZM306.95 112.37C308.356 112.338 309.43 112.05 310.172 111.506C310.915 110.953 311.276 110.239 311.256 109.366C311.236 108.493 310.843 107.801 310.077 107.291C309.311 106.78 308.224 106.541 306.819 106.573C305.404 106.605 304.326 106.893 303.583 107.438C302.832 107.983 302.467 108.692 302.486 109.565C302.506 110.438 302.904 111.134 303.679 111.653C304.445 112.163 305.535 112.402 306.95 112.37Z" fill="#F3B9D5"/>
<path d="M313.06 113.836C311.671 113.868 310.552 113.491 309.702 112.706C308.853 111.92 308.413 110.875 308.383 109.569C308.354 108.272 308.746 107.212 309.559 106.389C310.372 105.558 311.473 105.126 312.862 105.095C314.259 105.063 315.383 105.444 316.233 106.238C317.074 107.024 317.509 108.065 317.539 109.362C317.568 110.667 317.181 111.732 316.376 112.554C315.563 113.377 314.457 113.805 313.06 113.836ZM313.04 112.37C314.446 112.338 315.52 112.05 316.262 111.506C317.005 110.953 317.366 110.239 317.346 109.366C317.326 108.493 316.933 107.801 316.167 107.291C315.4 106.78 314.314 106.541 312.908 106.573C311.494 106.605 310.415 106.893 309.673 107.438C308.922 107.983 308.556 108.692 308.576 109.565C308.596 110.438 308.993 111.134 309.769 111.653C310.535 112.163 311.625 112.402 313.04 112.37Z" fill="#F3B9D5"/>
<path d="M320.611 112.446C319.251 112.724 318.082 112.553 317.106 111.931C316.13 111.31 315.511 110.36 315.249 109.08C314.989 107.809 315.186 106.697 315.84 105.742C316.492 104.779 317.498 104.158 318.859 103.88C320.228 103.599 321.402 103.774 322.38 104.404C323.347 105.027 323.961 105.974 324.221 107.245C324.483 108.524 324.291 109.641 323.646 110.594C322.992 111.548 321.981 112.166 320.611 112.446ZM320.33 111.007C321.708 110.725 322.714 110.25 323.347 109.582C323.979 108.906 324.207 108.139 324.032 107.284C323.857 106.428 323.347 105.817 322.502 105.452C321.657 105.086 320.546 105.044 319.168 105.326C317.782 105.609 316.772 106.085 316.139 106.753C315.497 107.423 315.263 108.186 315.438 109.042C315.613 109.898 316.128 110.512 316.984 110.884C317.829 111.25 318.944 111.291 320.33 111.007Z" fill="#F3B9D5"/>
<path d="M327.676 110.698C326.365 111.158 325.184 111.145 324.133 110.661C323.082 110.177 322.341 109.319 321.909 108.087C321.48 106.863 321.525 105.733 322.044 104.699C322.56 103.657 323.473 102.906 324.784 102.447C326.103 101.984 327.289 101.999 328.343 102.491C329.386 102.978 330.122 103.834 330.551 105.058C330.983 106.29 330.944 107.422 330.433 108.453C329.914 109.488 328.995 110.236 327.676 110.698ZM327.203 109.31C328.53 108.845 329.463 108.239 330 107.492C330.535 106.736 330.658 105.946 330.369 105.122C330.08 104.297 329.492 103.761 328.606 103.513C327.719 103.264 326.612 103.373 325.285 103.838C323.95 104.306 323.014 104.914 322.476 105.661C321.93 106.411 321.802 107.199 322.091 108.023C322.38 108.847 322.973 109.386 323.871 109.64C324.757 109.888 325.868 109.778 327.203 109.31Z" fill="#F3B9D5"/>
<path d="M333.765 108.668C332.454 109.127 331.273 109.115 330.222 108.631C329.171 108.147 328.43 107.289 327.998 106.057C327.569 104.832 327.614 103.703 328.132 102.669C328.648 101.627 329.562 100.876 330.873 100.416C332.192 99.954 333.378 99.9689 334.432 100.461C335.475 100.948 336.211 101.803 336.64 103.028C337.072 104.26 337.033 105.392 336.522 106.423C336.003 107.457 335.084 108.206 333.765 108.668ZM333.292 107.28C334.619 106.815 335.552 106.209 336.089 105.461C336.624 104.706 336.747 103.916 336.458 103.091C336.169 102.267 335.581 101.731 334.695 101.482C333.808 101.234 332.701 101.343 331.374 101.808C330.039 102.276 329.103 102.883 328.565 103.631C328.019 104.381 327.891 105.168 328.18 105.993C328.469 106.817 329.062 107.356 329.96 107.61C330.846 107.858 331.957 107.748 333.292 107.28Z" fill="#F3B9D5"/>
<path d="M339.854 106.638C338.543 107.097 337.363 107.085 336.312 106.601C335.261 106.117 334.519 105.259 334.087 104.027C333.658 102.802 333.703 101.673 334.222 100.639C334.738 99.5967 335.651 98.8458 336.962 98.3863C338.281 97.924 339.468 97.9389 340.521 98.431C341.564 98.9177 342.3 99.7732 342.729 100.997C343.161 102.23 343.122 103.362 342.611 104.393C342.092 105.427 341.173 106.175 339.854 106.638ZM339.382 105.25C340.709 104.785 341.641 104.179 342.179 103.431C342.713 102.676 342.836 101.886 342.547 101.061C342.258 100.237 341.671 99.7007 340.784 99.4524C339.897 99.2041 338.791 99.3126 337.464 99.7777C336.128 100.246 335.192 100.853 334.654 101.601C334.109 102.351 333.98 103.138 334.269 103.963C334.558 104.787 335.151 105.326 336.049 105.58C336.936 105.828 338.046 105.718 339.382 105.25Z" fill="#F3B9D5"/>
<path d="M345.638 102.544C344.532 103.385 343.405 103.737 342.256 103.6C341.107 103.464 340.137 102.875 339.347 101.836C338.562 100.803 338.257 99.7152 338.432 98.5715C338.602 97.4209 339.24 96.4252 340.345 95.5844C341.458 94.7384 342.591 94.3872 343.745 94.5309C344.888 94.6728 345.851 95.2601 346.636 96.2927C347.427 97.3322 347.738 98.4212 347.57 99.5597C347.394 100.703 346.75 101.698 345.638 102.544ZM344.761 101.37C345.88 100.518 346.581 99.6545 346.862 98.7778C347.138 97.8943 347.012 97.1048 346.483 96.4095C345.954 95.7142 345.23 95.385 344.31 95.4218C343.39 95.4586 342.37 95.9026 341.251 96.7538C340.125 97.6102 339.421 98.4767 339.14 99.3534C338.851 100.235 338.972 101.024 339.5 101.719C340.029 102.414 340.76 102.745 341.692 102.709C342.612 102.673 343.635 102.226 344.761 101.37Z" fill="#F3B9D5"/>
<path d="M351.727 100.515C350.621 101.355 349.494 101.707 348.345 101.571C347.196 101.434 346.226 100.846 345.436 99.8062C344.651 98.7736 344.346 97.6854 344.521 96.5417C344.691 95.3911 345.329 94.3954 346.434 93.5546C347.547 92.7086 348.68 92.3574 349.834 92.5011C350.976 92.643 351.94 93.2303 352.725 94.2629C353.516 95.3025 353.827 96.3915 353.658 97.53C353.483 98.6736 352.839 99.6685 351.727 100.515ZM350.85 99.3399C351.969 98.4887 352.669 97.6247 352.951 96.748C353.227 95.8645 353.1 95.075 352.572 94.3797C352.043 93.6844 351.319 93.3552 350.399 93.392C349.479 93.4288 348.459 93.8728 347.34 94.724C346.213 95.5804 345.51 96.447 345.228 97.3236C344.94 98.2055 345.061 98.9941 345.589 99.6894C346.118 100.385 346.848 100.715 347.78 100.68C348.7 100.643 349.724 100.196 350.85 99.3399Z" fill="#F3B9D5"/>
<path d="M356.172 96.1231C355.172 97.087 354.093 97.5679 352.936 97.5658C351.779 97.5638 350.748 97.0925 349.842 96.1522C348.941 95.218 348.512 94.1728 348.553 93.0164C348.587 91.8539 349.105 90.7907 350.105 89.8268C351.112 88.857 352.197 88.3763 353.36 88.3846C354.51 88.3926 355.536 88.8636 356.436 89.7978C357.342 90.7382 357.778 91.7836 357.743 92.9339C357.702 94.0903 357.179 95.1533 356.172 96.1231ZM355.164 95.0586C356.177 94.0828 356.772 93.1432 356.949 92.2397C357.121 91.33 356.903 90.5607 356.297 89.9317C355.691 89.3027 354.933 89.06 354.024 89.2037C353.114 89.3474 352.153 89.9071 351.141 90.8829C350.122 91.8646 349.524 92.8072 349.347 93.7106C349.163 94.6201 349.374 95.3893 349.98 96.0183C350.587 96.6473 351.35 96.8901 352.272 96.7467C353.181 96.603 354.146 96.0403 355.164 95.0586Z" fill="#F3B9D5"/>
<path d="M360.668 91.701C359.807 92.7906 358.802 93.4122 357.656 93.5658C356.509 93.7194 355.423 93.3911 354.399 92.5812C353.381 91.7765 352.815 90.7986 352.7 89.6473C352.578 88.4906 352.948 87.3675 353.809 86.2778C354.676 85.1815 355.687 84.5592 356.84 84.411C357.982 84.2641 359.061 84.593 360.079 85.3976C361.103 86.2076 361.676 87.1849 361.796 88.3295C361.911 89.4808 361.535 90.6046 360.668 91.701ZM359.526 90.7817C360.398 89.6786 360.862 88.6675 360.916 87.7484C360.963 86.8239 360.644 86.0908 359.959 85.549C359.274 85.0072 358.49 84.8687 357.609 85.1334C356.727 85.398 355.85 86.0819 354.978 87.185C354.1 88.2948 353.634 89.3093 353.58 90.2284C353.52 91.1542 353.833 91.8881 354.518 92.4298C355.204 92.9716 355.993 93.1095 356.887 92.8434C357.769 92.5787 358.649 91.8915 359.526 90.7817Z" fill="#F3B9D5"/>
<path d="M364.947 87.221C364.212 88.3998 363.284 89.1294 362.161 89.4097C361.039 89.69 359.923 89.4847 358.815 88.7939C357.714 88.1076 357.042 87.1987 356.8 86.0674C356.55 84.9315 356.793 83.7742 357.527 82.5954C358.267 81.4093 359.201 80.6784 360.331 80.4026C361.449 80.1296 362.559 80.3362 363.66 81.0225C364.768 81.7134 365.446 82.6209 365.693 83.7449C365.935 84.8763 365.687 86.035 364.947 87.221ZM363.71 86.4346C364.454 85.2412 364.802 84.1849 364.753 83.2654C364.697 82.3414 364.299 81.6484 363.558 81.1863C362.816 80.7241 362.022 80.6737 361.175 81.0349C360.329 81.3962 359.533 82.1735 358.789 83.3668C358.041 84.5675 357.691 85.6275 357.739 86.5469C357.783 87.4736 358.176 88.168 358.917 88.6301C359.658 89.0922 360.458 89.1413 361.317 88.7774C362.164 88.4162 362.962 87.6352 363.71 86.4346Z" fill="#F3B9D5"/>
<path d="M366.84 83.056C366.105 84.2348 365.177 84.9643 364.054 85.2447C362.932 85.525 361.816 85.3197 360.708 84.6288C359.607 83.9425 358.935 83.0337 358.693 81.9024C358.443 80.7665 358.686 79.6091 359.42 78.4303C360.16 77.2443 361.095 76.5133 362.224 76.2376C363.342 75.9646 364.452 76.1712 365.553 76.8575C366.661 77.5484 367.339 78.4558 367.586 79.5799C367.828 80.7112 367.58 81.8699 366.84 83.056ZM365.603 82.2696C366.347 81.0762 366.695 80.0198 366.646 79.1004C366.591 78.1764 366.192 77.4833 365.451 77.0212C364.709 76.5591 363.915 76.5087 363.069 76.8699C362.222 77.2311 361.426 78.0084 360.682 79.2018C359.934 80.4024 359.584 81.4624 359.632 82.3819C359.676 83.3086 360.069 84.003 360.81 84.4651C361.551 84.9272 362.351 84.9763 363.21 84.6124C364.057 84.2511 364.855 83.4702 365.603 82.2696Z" fill="#F3B9D5"/>
<path d="M407.5 255.5L388.5 188" stroke="white" stroke-width="2"/>
<path d="M196 256.5L217.5 187.5" stroke="white" stroke-width="2"/>
<path d="M1013.64 109.566H872.181C871.801 109.566 871.56 109.158 871.743 108.825L886.027 82.7631C886.079 82.6678 886.161 82.5921 886.26 82.5475L940.893 57.9553C941.027 57.8948 941.181 57.8967 941.314 57.9606L986.426 79.6324C986.481 79.6588 986.531 79.6951 986.573 79.7394L1014.01 108.722C1014.11 108.835 1014.14 108.919 1014.15 108.975C1014.16 109.05 1014.15 109.153 1014.1 109.263C1014.05 109.373 1013.98 109.45 1013.92 109.493C1013.88 109.526 1013.8 109.566 1013.64 109.566Z" fill="#FFE5F6" stroke="black" stroke-width="7"/>
<path d="M1023.15 111.575L1025.54 122.928L1039.94 380.855C1039.98 381.598 1039.47 382.259 1038.74 382.408L991.635 392.023L957.808 395.105C943.313 396.425 928.73 396.459 914.229 395.207L877.333 392.019L825.161 382.49C823.933 382.266 823.059 381.17 823.113 379.922L834.018 129.24L837.469 119.009C840.52 109.966 846.224 102.051 853.838 96.2966L856.15 94.5486C858.725 92.6027 861.56 91.0276 864.573 89.8695L884.833 82.0815L899.18 90.5792C905.759 94.4755 912.943 97.243 920.435 98.7669L926.141 99.9273C934.967 101.723 944.055 101.817 952.917 100.206C966.401 97.7543 978.881 91.4426 988.846 82.0391L995.232 83.4353C1009.27 86.5035 1020.19 97.5178 1023.15 111.575Z" fill="#F3B9D5" stroke="black" stroke-width="5"/>
<path d="M1022.77 102.261L1084.84 217.674C1085.8 219.454 1084.76 221.653 1082.78 222.039L1030.27 232.261L1022.77 102.261Z" fill="black"/>
<path d="M835.676 118L783.874 232.004C783.07 233.773 784.135 235.828 786.044 236.192L830.034 244.569L835.676 118Z" fill="black"/>
<path d="M317.055 23.5004V23.5004C308.917 16.7039 296.764 23.9508 298.874 34.3415L298.991 34.9149" stroke="black" stroke-width="6"/>
<path d="M945.07 21.9923V21.9923C938.947 15.3268 927.891 20.5913 929.206 29.5464L929.514 31.6473" stroke="black" stroke-width="6"/>
<rect x="0.193283" y="0.0878702" width="20.4705" height="35.8598" rx="0.35" transform="matrix(0.936661 -0.350239 0.351894 0.93604 354.506 101.987)" fill="white" stroke="black" stroke-width="0.3"/>
<path d="M366.308 100.6C366.473 101.041 366.248 101.534 365.803 101.701C365.358 101.867 364.863 101.643 364.697 101.202C364.531 100.761 364.756 100.268 365.202 100.101C365.647 99.9344 366.142 100.159 366.308 100.6Z" fill="#F3B9D5" stroke="black" stroke-width="0.3"/>
<path d="M359.189 93.1027L358.324 91.174C358.297 91.1131 358.282 91.0474 358.28 90.9807L358.237 89.0231C358.23 88.7298 358.477 88.4944 358.77 88.5139L359.818 88.5838C359.913 88.5902 360.004 88.6235 360.081 88.6799L362.269 90.2865C362.298 90.3082 362.326 90.3332 362.35 90.3608L363.839 92.067C363.896 92.1326 363.936 92.212 363.953 92.2972L365.572 100.336C365.637 100.654 365.359 100.937 365.039 100.878C364.936 100.86 364.842 100.806 364.773 100.726L363.791 99.5903C363.774 99.5695 363.757 99.5473 363.743 99.524L361.795 96.3344L359.257 93.2137C359.23 93.1798 359.207 93.1425 359.189 93.1027Z" stroke="black" stroke-width="0.3"/>
<path d="M366.308 100.6C366.473 101.041 366.248 101.534 365.803 101.701C365.358 101.867 364.863 101.643 364.697 101.202C364.531 100.761 364.756 100.268 365.202 100.101C365.647 99.9344 366.142 100.159 366.308 100.6Z" fill="#F3B9D5" stroke="black" stroke-width="0.3"/>
<path d="M359.189 93.1027L358.324 91.174C358.297 91.1131 358.282 91.0474 358.28 90.9807L358.237 89.0231C358.23 88.7298 358.477 88.4944 358.77 88.5139L359.818 88.5838C359.913 88.5902 360.004 88.6235 360.081 88.6799L362.269 90.2865C362.298 90.3082 362.326 90.3332 362.35 90.3608L363.839 92.067C363.896 92.1326 363.936 92.212 363.953 92.2972L365.572 100.336C365.637 100.654 365.359 100.937 365.039 100.878C364.936 100.86 364.842 100.806 364.773 100.726L363.791 99.5903C363.774 99.5695 363.757 99.5473 363.743 99.524L361.795 96.3344L359.257 93.2137C359.23 93.1798 359.207 93.1425 359.189 93.1027Z" stroke="#F8F8F8" stroke-width="0.2"/>
<rect x="0.185997" y="0.102395" width="20.4705" height="35.8598" rx="0.35" transform="matrix(0.960703 -0.277578 0.279276 0.960211 982.047 91.7207)" fill="white" stroke="black" stroke-width="0.3"/>
<path d="M993.916 91.2573C994.048 91.7098 993.786 92.1844 993.329 92.3164C992.872 92.4484 992.396 92.187 992.264 91.7346C992.133 91.2822 992.395 90.8075 992.852 90.6755C993.309 90.5435 993.785 90.8049 993.916 91.2573Z" fill="white" stroke="black" stroke-width="0.3"/>
<path d="M987.392 83.2369L986.678 81.2478C986.655 81.185 986.645 81.1183 986.649 81.0517L986.755 79.0965C986.771 78.8036 987.035 78.5877 987.326 78.6296L988.365 78.7795C988.46 78.7931 988.548 78.8333 988.62 78.8954L990.679 80.6646C990.707 80.6885 990.732 80.7154 990.754 80.7449L992.108 82.56C992.16 82.6298 992.193 82.7119 992.204 82.7982L993.204 90.9371C993.244 91.2595 992.946 91.5198 992.631 91.4374C992.529 91.4107 992.44 91.3499 992.377 91.2653L991.485 90.0575C991.469 90.0355 991.455 90.0121 991.442 89.9877L989.744 86.6585L987.452 83.3528C987.427 83.3169 987.407 83.278 987.392 83.2369Z" stroke="black" stroke-width="0.3"/>
<path d="M993.916 91.2573C994.048 91.7098 993.786 92.1844 993.329 92.3164C992.872 92.4484 992.396 92.187 992.264 91.7346C992.133 91.2822 992.395 90.8075 992.852 90.6755C993.309 90.5435 993.785 90.8049 993.916 91.2573Z" fill="white" stroke="black" stroke-width="0.3"/>
<path d="M987.392 83.2369L986.678 81.2478C986.655 81.185 986.645 81.1183 986.649 81.0517L986.755 79.0965C986.771 78.8036 987.035 78.5877 987.326 78.6296L988.365 78.7795C988.46 78.7931 988.548 78.8333 988.62 78.8954L990.679 80.6646C990.707 80.6885 990.732 80.7154 990.754 80.7449L992.108 82.56C992.16 82.6298 992.193 82.7119 992.204 82.7982L993.204 90.9371C993.244 91.2595 992.946 91.5198 992.631 91.4374C992.529 91.4107 992.44 91.3499 992.377 91.2653L991.485 90.0575C991.469 90.0355 991.455 90.0121 991.442 89.9877L989.744 86.6585L987.452 83.3528C987.427 83.3169 987.407 83.278 987.392 83.2369Z" stroke="#F8F8F8" stroke-width="0.2"/>
<path d="M357.573 130.941L358.258 131.67L358.258 131.67L357.573 130.941ZM387.306 263.709L386.998 264.661L386.998 264.661L387.306 263.709ZM410.936 271.357L411.244 270.406L411.244 270.406L410.936 271.357ZM454.703 365.993L455.628 366.375L455.628 366.375L454.703 365.993ZM418.077 452.889C418.289 453.399 418.874 453.641 419.384 453.429L427.694 449.974C428.204 449.762 428.446 449.177 428.234 448.667C428.022 448.157 427.437 447.915 426.927 448.127L419.54 451.198L416.468 443.811C416.256 443.301 415.671 443.06 415.161 443.272C414.651 443.484 414.41 444.069 414.622 444.579L418.077 452.889ZM361.153 126.21L360.087 127.211L361.456 128.669L362.522 127.668L361.153 126.21ZM357.955 129.211L356.889 130.212L358.258 131.67L359.324 130.67L357.955 129.211ZM356.889 130.212C356.403 130.668 355.925 131.127 355.454 131.591L356.856 133.016C357.316 132.564 357.783 132.115 358.258 131.67L356.889 130.212ZM352.71 134.42C351.807 135.396 350.934 136.387 350.092 137.392L351.624 138.677C352.446 137.697 353.297 136.73 354.178 135.778L352.71 134.42ZM347.624 140.484C346.823 141.539 346.053 142.608 345.314 143.689L346.966 144.818C347.686 143.764 348.436 142.722 349.217 141.693L347.624 140.484ZM343.168 147.005C342.475 148.137 341.814 149.28 341.185 150.434L342.941 151.391C343.554 150.267 344.198 149.153 344.873 148.05L343.168 147.005ZM339.379 153.954C338.805 155.146 338.264 156.348 337.755 157.558L339.599 158.333C340.095 157.154 340.622 155.983 341.181 154.821L339.379 153.954ZM336.316 161.239C335.865 162.484 335.447 163.736 335.062 164.994L336.975 165.579C337.35 164.353 337.757 163.133 338.196 161.92L336.316 161.239ZM334 168.805C333.678 170.086 333.388 171.372 333.131 172.663L335.093 173.053C335.343 171.796 335.625 170.542 335.94 169.293L334 168.805ZM332.456 176.558C332.263 177.864 332.103 179.174 331.976 180.484L333.966 180.678C334.091 179.4 334.247 178.124 334.435 176.851L332.456 176.558ZM331.69 184.429C331.627 185.747 331.596 187.065 331.598 188.382L333.598 188.379C333.596 187.095 333.626 185.809 333.687 184.524L331.69 184.429ZM331.7 192.334C331.767 193.651 331.865 194.966 331.995 196.277L333.986 196.079C333.859 194.8 333.763 193.518 333.698 192.234L331.7 192.334ZM332.482 200.201C332.675 201.505 332.901 202.804 333.158 204.096L335.119 203.707C334.869 202.446 334.649 201.179 334.46 199.907L332.482 200.201ZM334.022 207.954C334.341 209.233 334.691 210.504 335.072 211.766L336.986 211.188C336.615 209.957 336.273 208.717 335.962 207.47L334.022 207.954ZM336.305 215.523C336.747 216.764 337.218 217.995 337.72 219.214L339.57 218.453C339.08 217.264 338.62 216.063 338.19 214.853L336.305 215.523ZM339.313 222.833C339.873 224.025 340.463 225.204 341.082 226.369L342.848 225.431C342.245 224.295 341.67 223.145 341.123 221.982L339.313 222.833ZM343.023 229.816C343.697 230.947 344.401 232.062 345.132 233.161L346.797 232.053C346.084 230.982 345.398 229.894 344.741 228.791L343.023 229.816ZM347.404 236.397C348.187 237.454 348.997 238.494 349.835 239.516L351.381 238.247C350.565 237.252 349.775 236.238 349.012 235.207L347.404 236.397ZM352.421 242.51C353.306 243.484 354.218 244.438 355.157 245.371L356.567 243.953C355.653 243.044 354.764 242.114 353.902 241.165L352.421 242.51ZM358.029 248.087C359.005 248.964 360.007 249.821 361.035 250.654L362.295 249.101C361.294 248.289 360.317 247.454 359.365 246.599L358.029 248.087ZM364.169 253.068C365.23 253.843 366.316 254.596 367.425 255.323L368.522 253.651C367.441 252.942 366.383 252.209 365.349 251.453L364.169 253.068ZM370.781 257.407C371.91 258.07 373.062 258.708 374.237 259.321L375.162 257.548C374.017 256.951 372.894 256.328 371.793 255.682L370.781 257.407ZM377.788 261.066C378.978 261.615 380.19 262.139 381.423 262.637L382.172 260.782C380.969 260.297 379.787 259.785 378.625 259.25L377.788 261.066ZM385.112 264.026C385.736 264.244 386.364 264.456 386.998 264.661L387.614 262.758C386.995 262.558 386.381 262.351 385.772 262.138L385.112 264.026ZM386.998 264.661L388.967 265.298L389.583 263.395L387.614 262.758L386.998 264.661ZM392.906 266.573L396.844 267.847L397.46 265.945L393.521 264.67L392.906 266.573ZM400.782 269.122L404.721 270.397L405.337 268.494L401.398 267.219L400.782 269.122ZM408.659 271.672L410.628 272.309L411.244 270.406L409.275 269.769L408.659 271.672ZM410.628 272.309C411.243 272.508 411.852 272.714 412.457 272.928L413.124 271.043C412.502 270.823 411.876 270.61 411.244 270.406L410.628 272.309ZM416.049 274.309C417.24 274.805 418.411 275.33 419.56 275.884L420.428 274.082C419.246 273.512 418.042 272.972 416.817 272.463L416.049 274.309ZM422.979 277.648C424.107 278.27 425.213 278.921 426.295 279.599L427.357 277.904C426.243 277.206 425.106 276.537 423.945 275.897L422.979 277.648ZM429.498 281.73C430.549 282.472 431.576 283.241 432.578 284.036L433.821 282.468C432.79 281.651 431.733 280.86 430.652 280.096L429.498 281.73ZM435.525 286.508C436.487 287.362 437.422 288.24 438.331 289.141L439.739 287.72C438.804 286.793 437.842 285.89 436.853 285.012L435.525 286.508ZM440.987 291.924C441.849 292.878 442.682 293.854 443.487 294.851L445.043 293.594C444.215 292.569 443.358 291.565 442.472 290.584L440.987 291.924ZM445.822 297.91C446.573 298.952 447.294 300.013 447.986 301.093L449.67 300.014C448.959 298.904 448.217 297.812 447.444 296.741L445.822 297.91ZM449.972 304.389C450.604 305.506 451.206 306.639 451.776 307.788L453.567 306.9C452.981 305.718 452.363 304.552 451.713 303.404L449.972 304.389ZM453.391 311.282C453.898 312.46 454.372 313.652 454.814 314.857L456.692 314.169C456.237 312.93 455.749 311.704 455.229 310.492L453.391 311.282ZM456.039 318.506C456.414 319.732 456.755 320.969 457.063 322.216L459.005 321.736C458.688 320.454 458.337 319.182 457.952 317.921L456.039 318.506ZM457.882 325.976C458.12 327.235 458.324 328.502 458.493 329.776L460.476 329.512C460.302 328.202 460.092 326.899 459.847 325.604L457.882 325.976ZM458.894 333.602C458.992 334.878 459.055 336.16 459.083 337.445L461.082 337.402C461.054 336.08 460.989 334.762 460.888 333.449L458.894 333.602ZM459.058 341.292C459.015 342.57 458.936 343.85 458.821 345.132L460.813 345.311C460.931 343.992 461.012 342.675 461.057 341.36L459.058 341.292ZM458.37 348.952C458.186 350.216 457.966 351.48 457.709 352.743L459.669 353.141C459.933 351.842 460.159 350.542 460.349 349.242L458.37 348.952ZM456.84 356.491C456.517 357.725 456.159 358.957 455.766 360.185L457.67 360.796C458.075 359.533 458.443 358.266 458.775 356.996L456.84 356.491ZM454.492 363.817C454.263 364.416 454.025 365.015 453.779 365.612L455.628 366.375C455.881 365.761 456.125 365.146 456.36 364.53L454.492 363.817ZM453.779 365.612L453.035 367.414L454.884 368.177L455.628 366.375L453.779 365.612ZM451.548 371.019L450.06 374.623L451.909 375.386L453.396 371.782L451.548 371.019ZM448.572 378.228L447.085 381.833L448.933 382.596L450.421 378.991L448.572 378.228ZM445.597 385.437L444.109 389.042L445.958 389.805L447.446 386.2L445.597 385.437ZM442.622 392.647L441.134 396.251L442.983 397.014L444.471 393.41L442.622 392.647ZM439.646 399.856L438.159 403.461L440.008 404.224L441.495 400.619L439.646 399.856ZM436.671 407.065L435.184 410.67L437.032 411.433L438.52 407.828L436.671 407.065ZM433.696 414.275L432.208 417.879L434.057 418.642L435.545 415.038L433.696 414.275ZM430.721 421.484L429.233 425.089L431.082 425.852L432.569 422.247L430.721 421.484ZM427.745 428.693L426.258 432.298L428.106 433.061L429.594 429.456L427.745 428.693ZM424.77 435.903L423.282 439.508L425.131 440.27L426.619 436.666L424.77 435.903ZM421.795 443.112L420.307 446.717L422.156 447.48L423.643 443.875L421.795 443.112ZM418.819 450.322L418.076 452.124L419.924 452.887L420.668 451.085L418.819 450.322ZM357.573 130.941L358.258 131.67L358.258 131.67L357.573 130.941ZM387.306 263.709L386.998 264.661L386.998 264.661L387.306 263.709ZM410.936 271.357L411.244 270.406L411.244 270.406L410.936 271.357ZM454.703 365.993L455.628 366.375L455.628 366.375L454.703 365.993ZM418.077 452.889C418.289 453.399 418.874 453.641 419.384 453.429L427.694 449.974C428.204 449.762 428.446 449.177 428.234 448.667C428.022 448.157 427.437 447.915 426.927 448.127L419.54 451.198L416.468 443.811C416.256 443.301 415.671 443.06 415.161 443.272C414.651 443.484 414.41 444.069 414.622 444.579L418.077 452.889ZM361.153 126.21L360.087 127.211L361.456 128.669L362.522 127.668L361.153 126.21ZM357.955 129.211L356.889 130.212L358.258 131.67L359.324 130.67L357.955 129.211ZM356.889 130.212C356.403 130.668 355.925 131.127 355.454 131.591L356.856 133.016C357.316 132.564 357.783 132.115 358.258 131.67L356.889 130.212ZM352.71 134.42C351.807 135.396 350.934 136.387 350.092 137.392L351.624 138.677C352.446 137.697 353.297 136.73 354.178 135.778L352.71 134.42ZM347.624 140.484C346.823 141.539 346.053 142.608 345.314 143.689L346.966 144.818C347.686 143.764 348.436 142.722 349.217 141.693L347.624 140.484ZM343.168 147.005C342.475 148.137 341.814 149.28 341.185 150.434L342.941 151.391C343.554 150.267 344.198 149.153 344.873 148.05L343.168 147.005ZM339.379 153.954C338.805 155.146 338.264 156.348 337.755 157.558L339.599 158.333C340.095 157.154 340.622 155.983 341.181 154.821L339.379 153.954ZM336.316 161.239C335.865 162.484 335.447 163.736 335.062 164.994L336.975 165.579C337.35 164.353 337.757 163.133 338.196 161.92L336.316 161.239ZM334 168.805C333.678 170.086 333.388 171.372 333.131 172.663L335.093 173.053C335.343 171.796 335.625 170.542 335.94 169.293L334 168.805ZM332.456 176.558C332.263 177.864 332.103 179.174 331.976 180.484L333.966 180.678C334.091 179.4 334.247 178.124 334.435 176.851L332.456 176.558ZM331.69 184.429C331.627 185.747 331.596 187.065 331.598 188.382L333.598 188.379C333.596 187.095 333.626 185.809 333.687 184.524L331.69 184.429ZM331.7 192.334C331.767 193.651 331.865 194.966 331.995 196.277L333.986 196.079C333.859 194.8 333.763 193.518 333.698 192.234L331.7 192.334ZM332.482 200.201C332.675 201.505 332.901 202.804 333.158 204.096L335.119 203.707C334.869 202.446 334.649 201.179 334.46 199.907L332.482 200.201ZM334.022 207.954C334.341 209.233 334.691 210.504 335.072 211.766L336.986 211.188C336.615 209.957 336.273 208.717 335.962 207.47L334.022 207.954ZM336.305 215.523C336.747 216.764 337.218 217.995 337.72 219.214L339.57 218.453C339.08 217.264 338.62 216.063 338.19 214.853L336.305 215.523ZM339.313 222.833C339.873 224.025 340.463 225.204 341.082 226.369L342.848 225.431C342.245 224.295 341.67 223.145 341.123 221.982L339.313 222.833ZM343.023 229.816C343.697 230.947 344.401 232.062 345.132 233.161L346.797 232.053C346.084 230.982 345.398 229.894 344.741 228.791L343.023 229.816ZM347.404 236.397C348.187 237.454 348.997 238.494 349.835 239.516L351.381 238.247C350.565 237.252 349.775 236.238 349.012 235.207L347.404 236.397ZM352.421 242.51C353.306 243.484 354.218 244.438 355.157 245.371L356.567 243.953C355.653 243.044 354.764 242.114 353.902 241.165L352.421 242.51ZM358.029 248.087C359.005 248.964 360.007 249.821 361.035 250.654L362.295 249.101C361.294 248.289 360.317 247.454 359.365 246.599L358.029 248.087ZM364.169 253.068C365.23 253.843 366.316 254.596 367.425 255.323L368.522 253.651C367.441 252.942 366.383 252.209 365.349 251.453L364.169 253.068ZM370.781 257.407C371.91 258.07 373.062 258.708 374.237 259.321L375.162 257.548C374.017 256.951 372.894 256.328 371.793 255.682L370.781 257.407ZM377.788 261.066C378.978 261.615 380.19 262.139 381.423 262.637L382.172 260.782C380.969 260.297 379.787 259.785 378.625 259.25L377.788 261.066ZM385.112 264.026C385.736 264.244 386.364 264.456 386.998 264.661L387.614 262.758C386.995 262.558 386.381 262.351 385.772 262.138L385.112 264.026ZM386.998 264.661L388.967 265.298L389.583 263.395L387.614 262.758L386.998 264.661ZM392.906 266.573L396.844 267.847L397.46 265.945L393.521 264.67L392.906 266.573ZM400.782 269.122L404.721 270.397L405.337 268.494L401.398 267.219L400.782 269.122ZM408.659 271.672L410.628 272.309L411.244 270.406L409.275 269.769L408.659 271.672ZM410.628 272.309C411.243 272.508 411.852 272.714 412.457 272.928L413.124 271.043C412.502 270.823 411.876 270.61 411.244 270.406L410.628 272.309ZM416.049 274.309C417.24 274.805 418.411 275.33 419.56 275.884L420.428 274.082C419.246 273.512 418.042 272.972 416.817 272.463L416.049 274.309ZM422.979 277.648C424.107 278.27 425.213 278.921 426.295 279.599L427.357 277.904C426.243 277.206 425.106 276.537 423.945 275.897L422.979 277.648ZM429.498 281.73C430.549 282.472 431.576 283.241 432.578 284.036L433.821 282.468C432.79 281.651 431.733 280.86 430.652 280.096L429.498 281.73ZM435.525 286.508C436.487 287.362 437.422 288.24 438.331 289.141L439.739 287.72C438.804 286.793 437.842 285.89 436.853 285.012L435.525 286.508ZM440.987 291.924C441.849 292.878 442.682 293.854 443.487 294.851L445.043 293.594C444.215 292.569 443.358 291.565 442.472 290.584L440.987 291.924ZM445.822 297.91C446.573 298.952 447.294 300.013 447.986 301.093L449.67 300.014C448.959 298.904 448.217 297.812 447.444 296.741L445.822 297.91ZM449.972 304.389C450.604 305.506 451.206 306.639 451.776 307.788L453.567 306.9C452.981 305.718 452.363 304.552 451.713 303.404L449.972 304.389ZM453.391 311.282C453.898 312.46 454.372 313.652 454.814 314.857L456.692 314.169C456.237 312.93 455.749 311.704 455.229 310.492L453.391 311.282ZM456.039 318.506C456.414 319.732 456.755 320.969 457.063 322.216L459.005 321.736C458.688 320.454 458.337 319.182 457.952 317.921L456.039 318.506ZM457.882 325.976C458.12 327.235 458.324 328.502 458.493 329.776L460.476 329.512C460.302 328.202 460.092 326.899 459.847 325.604L457.882 325.976ZM458.894 333.602C458.992 334.878 459.055 336.16 459.083 337.445L461.082 337.402C461.054 336.08 460.989 334.762 460.888 333.449L458.894 333.602ZM459.058 341.292C459.015 342.57 458.936 343.85 458.821 345.132L460.813 345.311C460.931 343.992 461.012 342.675 461.057 341.36L459.058 341.292ZM458.37 348.952C458.186 350.216 457.966 351.48 457.709 352.743L459.669 353.141C459.933 351.842 460.159 350.542 460.349 349.242L458.37 348.952ZM456.84 356.491C456.517 357.725 456.159 358.957 455.766 360.185L457.67 360.796C458.075 359.533 458.443 358.266 458.775 356.996L456.84 356.491ZM454.492 363.817C454.263 364.416 454.025 365.015 453.779 365.612L455.628 366.375C455.881 365.761 456.125 365.146 456.36 364.53L454.492 363.817ZM453.779 365.612L453.035 367.414L454.884 368.177L455.628 366.375L453.779 365.612ZM451.548 371.019L450.06 374.623L451.909 375.386L453.396 371.782L451.548 371.019ZM448.572 378.228L447.085 381.833L448.933 382.596L450.421 378.991L448.572 378.228ZM445.597 385.437L444.109 389.042L445.958 389.805L447.446 386.2L445.597 385.437ZM442.622 392.647L441.134 396.251L442.983 397.014L444.471 393.41L442.622 392.647ZM439.646 399.856L438.159 403.461L440.008 404.224L441.495 400.619L439.646 399.856ZM436.671 407.065L435.184 410.67L437.032 411.433L438.52 407.828L436.671 407.065ZM433.696 414.275L432.208 417.879L434.057 418.642L435.545 415.038L433.696 414.275ZM430.721 421.484L429.233 425.089L431.082 425.852L432.569 422.247L430.721 421.484ZM427.745 428.693L426.258 432.298L428.106 433.061L429.594 429.456L427.745 428.693ZM424.77 435.903L423.282 439.508L425.131 440.27L426.619 436.666L424.77 435.903ZM421.795 443.112L420.307 446.717L422.156 447.48L423.643 443.875L421.795 443.112ZM418.819 450.322L418.076 452.124L419.924 452.887L420.668 451.085L418.819 450.322Z" fill="#F3B9D5"/>
<path d="M974.049 223.09L973.364 223.819L974.049 223.09ZM1019.13 265.478L1019.82 264.749L1019.87 264.798L1019.91 264.852L1019.13 265.478ZM1047.3 300.606L1046.52 301.231L1046.52 301.231L1047.3 300.606ZM1055.04 400.144L1054.18 399.646L1054.18 399.646L1055.04 400.144ZM1039.35 427.51L1038.48 427.013L1038.48 427.013L1039.35 427.51ZM1025.8 445.889L1026.53 446.571L1026.53 446.571L1025.8 445.889ZM973.168 503.478C972.616 503.497 972.152 503.066 972.132 502.514L971.81 493.52C971.79 492.968 972.221 492.505 972.773 492.485C973.325 492.465 973.789 492.896 973.809 493.448L974.095 501.443L982.09 501.156C982.642 501.137 983.106 501.568 983.125 502.12C983.145 502.672 982.714 503.135 982.162 503.155L973.168 503.478ZM1064.28 335.126L1065.25 334.89L1065.25 334.89L1064.28 335.126ZM972.4 501.797L973.717 500.382L975.181 501.745L973.864 503.16L972.4 501.797ZM976.35 497.553L978.984 494.723L980.448 496.086L977.814 498.915L976.35 497.553ZM981.617 491.894L984.251 489.064L985.715 490.427L983.081 493.257L981.617 491.894ZM986.884 486.235L989.517 483.406L990.981 484.768L988.348 487.598L986.884 486.235ZM992.151 480.576L994.784 477.747L996.248 479.109L993.615 481.939L992.151 480.576ZM997.418 474.917L1000.05 472.088L1001.52 473.45L998.882 476.28L997.418 474.917ZM1002.68 469.258L1005.32 466.429L1006.78 467.792L1004.15 470.621L1002.68 469.258ZM1007.95 463.599L1010.59 460.77L1012.05 462.133L1009.42 464.962L1007.95 463.599ZM1013.22 457.941L1015.85 455.111L1017.32 456.474L1014.68 459.303L1013.22 457.941ZM1018.49 452.282L1021.12 449.452L1022.58 450.815L1019.95 453.644L1018.49 452.282ZM1023.75 446.623L1025.07 445.208L1026.53 446.571L1025.22 447.985L1023.75 446.623ZM1025.07 445.208C1025.5 444.747 1025.92 444.283 1026.34 443.814L1027.83 445.149C1027.4 445.627 1026.97 446.101 1026.53 446.571L1025.07 445.208ZM1028.81 440.955C1029.61 439.986 1030.4 439.002 1031.16 438.003L1032.75 439.22C1031.97 440.239 1031.17 441.243 1030.35 442.231L1028.81 440.955ZM1033.4 434.964C1034.13 433.937 1034.84 432.896 1035.52 431.842L1037.2 432.935C1036.5 434.01 1035.78 435.072 1035.03 436.12L1033.4 434.964ZM1037.53 428.641C1037.85 428.101 1038.17 427.559 1038.48 427.013L1040.21 428.008C1039.9 428.565 1039.57 429.119 1039.24 429.669L1037.53 428.641ZM1038.48 427.013L1039.46 425.302L1041.2 426.297L1040.21 428.008L1038.48 427.013ZM1041.42 421.881L1043.38 418.461L1045.12 419.456L1043.16 422.876L1041.42 421.881ZM1045.35 415.04L1047.31 411.619L1049.04 412.614L1047.08 416.035L1045.35 415.04ZM1049.27 408.198L1051.23 404.778L1052.97 405.773L1051.01 409.193L1049.27 408.198ZM1053.19 401.357L1054.18 399.646L1055.91 400.641L1054.93 402.352L1053.19 401.357ZM1054.18 399.646C1054.52 399.045 1054.86 398.439 1055.19 397.831L1056.95 398.785C1056.61 399.407 1056.26 400.026 1055.91 400.641L1054.18 399.646ZM1057.08 394.131C1057.69 392.881 1058.26 391.619 1058.8 390.346L1060.64 391.128C1060.09 392.431 1059.5 393.722 1058.88 395L1057.08 394.131ZM1060.34 386.483C1060.82 385.182 1061.27 383.871 1061.69 382.552L1063.59 383.156C1063.16 384.506 1062.7 385.847 1062.21 387.177L1060.34 386.483ZM1062.85 378.561C1063.21 377.221 1063.53 375.873 1063.82 374.519L1065.78 374.941C1065.48 376.326 1065.15 377.704 1064.78 379.074L1062.85 378.561ZM1064.6 370.436C1064.83 369.069 1065.02 367.697 1065.19 366.321L1067.17 366.555C1067.01 367.963 1066.81 369.366 1066.57 370.764L1064.6 370.436ZM1065.57 362.182C1065.67 360.8 1065.74 359.416 1065.77 358.03L1067.77 358.075C1067.73 359.493 1067.67 360.909 1067.57 362.322L1065.57 362.182ZM1065.76 353.873C1065.73 352.489 1065.66 351.105 1065.56 349.721L1067.56 349.576C1067.66 350.992 1067.73 352.408 1067.76 353.823L1065.76 353.873ZM1065.16 345.583C1065 344.21 1064.8 342.838 1064.57 341.469L1066.54 341.136C1066.78 342.536 1066.98 343.939 1067.15 345.344L1065.16 345.583ZM1063.78 337.388C1063.63 336.712 1063.48 336.036 1063.31 335.362L1065.25 334.89C1065.42 335.58 1065.58 336.27 1065.73 336.962L1063.78 337.388ZM1063.31 335.362C1063.16 334.741 1063 334.122 1062.84 333.504L1064.77 332.99C1064.94 333.621 1065.1 334.255 1065.25 334.89L1063.31 335.362ZM1061.77 329.822C1061.39 328.602 1060.98 327.391 1060.54 326.19L1062.42 325.508C1062.87 326.737 1063.29 327.975 1063.68 329.223L1061.77 329.822ZM1059.16 322.615C1058.67 321.433 1058.16 320.263 1057.62 319.104L1059.43 318.261C1059.98 319.446 1060.51 320.643 1061.01 321.852L1059.16 322.615ZM1055.93 315.664C1055.34 314.53 1054.72 313.409 1054.08 312.301L1055.82 311.302C1056.47 312.435 1057.1 313.582 1057.7 314.742L1055.93 315.664ZM1052.1 309.022C1051.41 307.944 1050.7 306.881 1049.97 305.833L1051.61 304.687C1052.36 305.759 1053.08 306.846 1053.79 307.948L1052.1 309.022ZM1047.7 302.74C1047.32 302.233 1046.92 301.73 1046.52 301.231L1048.08 299.98C1048.49 300.49 1048.89 301.005 1049.29 301.523L1047.7 302.74ZM1046.52 301.231L1045.35 299.768L1046.91 298.516L1048.08 299.98L1046.52 301.231ZM1043 296.84L1040.65 293.913L1042.21 292.662L1044.56 295.589L1043 296.84ZM1038.31 290.986L1035.96 288.058L1037.52 286.807L1039.87 289.734L1038.31 290.986ZM1033.61 285.131L1031.26 282.204L1032.82 280.953L1035.17 283.88L1033.61 285.131ZM1028.91 279.276L1026.57 276.349L1028.13 275.098L1030.47 278.025L1028.91 279.276ZM1024.22 273.422L1021.87 270.495L1023.43 269.243L1025.78 272.171L1024.22 273.422ZM1019.52 267.567L1018.35 266.104L1019.91 264.852L1021.08 266.316L1019.52 267.567ZM1018.45 266.207L1017.04 264.882L1018.41 263.425L1019.82 264.749L1018.45 266.207ZM1014.22 262.233L1011.4 259.584L1012.77 258.126L1015.59 260.776L1014.22 262.233ZM1008.58 256.934L1005.77 254.285L1007.14 252.828L1009.95 255.477L1008.58 256.934ZM1002.95 251.636L1000.13 248.987L1001.5 247.53L1004.32 250.179L1002.95 251.636ZM997.314 246.337L994.496 243.688L995.866 242.231L998.684 244.88L997.314 246.337ZM991.678 241.039L988.861 238.39L990.231 236.933L993.048 239.582L991.678 241.039ZM986.043 235.74L983.226 233.091L984.596 231.634L987.413 234.283L986.043 235.74ZM980.408 230.442L977.59 227.793L978.96 226.336L981.778 228.985L980.408 230.442ZM974.773 225.144L973.364 223.819L974.734 222.362L976.143 223.687L974.773 225.144ZM973.364 223.819C972.858 223.343 972.361 222.862 971.874 222.375L973.288 220.96C973.761 221.433 974.243 221.9 974.734 222.362L973.364 223.819ZM969.043 219.367C968.123 218.328 967.242 217.268 966.401 216.189L967.979 214.96C968.794 216.006 969.648 217.034 970.54 218.042L969.043 219.367ZM963.964 212.852C963.183 211.707 962.442 210.545 961.742 209.366L963.462 208.345C964.14 209.488 964.858 210.614 965.616 211.724L963.964 212.852ZM959.747 205.746C959.118 204.514 958.531 203.266 957.986 202.007L959.822 201.213C960.35 202.434 960.918 203.643 961.528 204.837L959.747 205.746ZM956.467 198.162C956 196.861 955.576 195.55 955.195 194.229L957.117 193.675C957.486 194.955 957.897 196.226 958.349 197.487L956.467 198.162ZM954.176 190.224C953.877 188.876 953.622 187.521 953.41 186.162L955.386 185.853C955.592 187.171 955.839 188.485 956.128 189.792L954.176 190.224ZM952.901 182.059C952.774 180.686 952.691 179.31 952.65 177.934L954.649 177.875C954.689 179.209 954.77 180.543 954.893 181.875L952.901 182.059ZM952.655 173.801C952.7 172.424 952.787 171.048 952.917 169.677L954.908 169.866C954.782 171.196 954.697 172.53 954.654 173.866L952.655 173.801ZM953.434 165.577C953.648 164.216 953.905 162.862 954.204 161.517L956.156 161.95C955.867 163.255 955.618 164.569 955.409 165.889L953.434 165.577ZM955.224 157.512C955.605 156.189 956.028 154.877 956.492 153.578L958.375 154.251C957.925 155.51 957.515 156.783 957.146 158.066L955.224 157.512ZM958.003 149.731C958.545 148.466 959.129 147.217 959.752 145.985L961.537 146.888C960.932 148.083 960.367 149.294 959.84 150.52L958.003 149.731ZM961.734 142.358C962.431 141.174 963.167 140.008 963.942 138.864L965.598 139.985C964.847 141.094 964.133 142.224 963.458 143.372L961.734 142.358ZM966.367 135.517C967.208 134.431 968.086 133.369 969.001 132.331L970.501 133.654C969.614 134.66 968.763 135.69 967.948 136.741L966.367 135.517ZM971.833 129.32C972.803 128.352 973.809 127.409 974.85 126.495L976.17 127.997C975.16 128.884 974.186 129.797 973.245 130.735L971.833 129.32ZM978.039 123.866C979.122 123.03 980.237 122.222 981.386 121.443L982.508 123.099C981.394 123.854 980.311 124.638 979.262 125.449L978.039 123.866ZM984.876 119.232C985.468 118.881 986.069 118.538 986.677 118.203L987.643 119.954C987.052 120.28 986.469 120.613 985.894 120.953L984.876 119.232ZM974.049 223.09L973.364 223.819L974.049 223.09ZM1019.13 265.478L1019.82 264.749L1019.87 264.798L1019.91 264.852L1019.13 265.478ZM1047.3 300.606L1046.52 301.231L1046.52 301.231L1047.3 300.606ZM1055.04 400.144L1054.18 399.646L1054.18 399.646L1055.04 400.144ZM1039.35 427.51L1038.48 427.013L1038.48 427.013L1039.35 427.51ZM1025.8 445.889L1026.53 446.571L1026.53 446.571L1025.8 445.889ZM973.168 503.478C972.616 503.497 972.152 503.066 972.132 502.514L971.81 493.52C971.79 492.968 972.221 492.505 972.773 492.485C973.325 492.465 973.789 492.896 973.809 493.448L974.095 501.443L982.09 501.156C982.642 501.137 983.106 501.568 983.125 502.12C983.145 502.672 982.714 503.135 982.162 503.155L973.168 503.478ZM1064.28 335.126L1065.25 334.89L1065.25 334.89L1064.28 335.126ZM972.4 501.797L973.717 500.382L975.181 501.745L973.864 503.16L972.4 501.797ZM976.35 497.553L978.984 494.723L980.448 496.086L977.814 498.915L976.35 497.553ZM981.617 491.894L984.251 489.064L985.715 490.427L983.081 493.257L981.617 491.894ZM986.884 486.235L989.517 483.406L990.981 484.768L988.348 487.598L986.884 486.235ZM992.151 480.576L994.784 477.747L996.248 479.109L993.615 481.939L992.151 480.576ZM997.418 474.917L1000.05 472.088L1001.52 473.45L998.882 476.28L997.418 474.917ZM1002.68 469.258L1005.32 466.429L1006.78 467.792L1004.15 470.621L1002.68 469.258ZM1007.95 463.599L1010.59 460.77L1012.05 462.133L1009.42 464.962L1007.95 463.599ZM1013.22 457.941L1015.85 455.111L1017.32 456.474L1014.68 459.303L1013.22 457.941ZM1018.49 452.282L1021.12 449.452L1022.58 450.815L1019.95 453.644L1018.49 452.282ZM1023.75 446.623L1025.07 445.208L1026.53 446.571L1025.22 447.985L1023.75 446.623ZM1025.07 445.208C1025.5 444.747 1025.92 444.283 1026.34 443.814L1027.83 445.149C1027.4 445.627 1026.97 446.101 1026.53 446.571L1025.07 445.208ZM1028.81 440.955C1029.61 439.986 1030.4 439.002 1031.16 438.003L1032.75 439.22C1031.97 440.239 1031.17 441.243 1030.35 442.231L1028.81 440.955ZM1033.4 434.964C1034.13 433.937 1034.84 432.896 1035.52 431.842L1037.2 432.935C1036.5 434.01 1035.78 435.072 1035.03 436.12L1033.4 434.964ZM1037.53 428.641C1037.85 428.101 1038.17 427.559 1038.48 427.013L1040.21 428.008C1039.9 428.565 1039.57 429.119 1039.24 429.669L1037.53 428.641ZM1038.48 427.013L1039.46 425.302L1041.2 426.297L1040.21 428.008L1038.48 427.013ZM1041.42 421.881L1043.38 418.461L1045.12 419.456L1043.16 422.876L1041.42 421.881ZM1045.35 415.04L1047.31 411.619L1049.04 412.614L1047.08 416.035L1045.35 415.04ZM1049.27 408.198L1051.23 404.778L1052.97 405.773L1051.01 409.193L1049.27 408.198ZM1053.19 401.357L1054.18 399.646L1055.91 400.641L1054.93 402.352L1053.19 401.357ZM1054.18 399.646C1054.52 399.045 1054.86 398.439 1055.19 397.831L1056.95 398.785C1056.61 399.407 1056.26 400.026 1055.91 400.641L1054.18 399.646ZM1057.08 394.131C1057.69 392.881 1058.26 391.619 1058.8 390.346L1060.64 391.128C1060.09 392.431 1059.5 393.722 1058.88 395L1057.08 394.131ZM1060.34 386.483C1060.82 385.182 1061.27 383.871 1061.69 382.552L1063.59 383.156C1063.16 384.506 1062.7 385.847 1062.21 387.177L1060.34 386.483ZM1062.85 378.561C1063.21 377.221 1063.53 375.873 1063.82 374.519L1065.78 374.941C1065.48 376.326 1065.15 377.704 1064.78 379.074L1062.85 378.561ZM1064.6 370.436C1064.83 369.069 1065.02 367.697 1065.19 366.321L1067.17 366.555C1067.01 367.963 1066.81 369.366 1066.57 370.764L1064.6 370.436ZM1065.57 362.182C1065.67 360.8 1065.74 359.416 1065.77 358.03L1067.77 358.075C1067.73 359.493 1067.67 360.909 1067.57 362.322L1065.57 362.182ZM1065.76 353.873C1065.73 352.489 1065.66 351.105 1065.56 349.721L1067.56 349.576C1067.66 350.992 1067.73 352.408 1067.76 353.823L1065.76 353.873ZM1065.16 345.583C1065 344.21 1064.8 342.838 1064.57 341.469L1066.54 341.136C1066.78 342.536 1066.98 343.939 1067.15 345.344L1065.16 345.583ZM1063.78 337.388C1063.63 336.712 1063.48 336.036 1063.31 335.362L1065.25 334.89C1065.42 335.58 1065.58 336.27 1065.73 336.962L1063.78 337.388ZM1063.31 335.362C1063.16 334.741 1063 334.122 1062.84 333.504L1064.77 332.99C1064.94 333.621 1065.1 334.255 1065.25 334.89L1063.31 335.362ZM1061.77 329.822C1061.39 328.602 1060.98 327.391 1060.54 326.19L1062.42 325.508C1062.87 326.737 1063.29 327.975 1063.68 329.223L1061.77 329.822ZM1059.16 322.615C1058.67 321.433 1058.16 320.263 1057.62 319.104L1059.43 318.261C1059.98 319.446 1060.51 320.643 1061.01 321.852L1059.16 322.615ZM1055.93 315.664C1055.34 314.53 1054.72 313.409 1054.08 312.301L1055.82 311.302C1056.47 312.435 1057.1 313.582 1057.7 314.742L1055.93 315.664ZM1052.1 309.022C1051.41 307.944 1050.7 306.881 1049.97 305.833L1051.61 304.687C1052.36 305.759 1053.08 306.846 1053.79 307.948L1052.1 309.022ZM1047.7 302.74C1047.32 302.233 1046.92 301.73 1046.52 301.231L1048.08 299.98C1048.49 300.49 1048.89 301.005 1049.29 301.523L1047.7 302.74ZM1046.52 301.231L1045.35 299.768L1046.91 298.516L1048.08 299.98L1046.52 301.231ZM1043 296.84L1040.65 293.913L1042.21 292.662L1044.56 295.589L1043 296.84ZM1038.31 290.986L1035.96 288.058L1037.52 286.807L1039.87 289.734L1038.31 290.986ZM1033.61 285.131L1031.26 282.204L1032.82 280.953L1035.17 283.88L1033.61 285.131ZM1028.91 279.276L1026.57 276.349L1028.13 275.098L1030.47 278.025L1028.91 279.276ZM1024.22 273.422L1021.87 270.495L1023.43 269.243L1025.78 272.171L1024.22 273.422ZM1019.52 267.567L1018.35 266.104L1019.91 264.852L1021.08 266.316L1019.52 267.567ZM1018.45 266.207L1017.04 264.882L1018.41 263.425L1019.82 264.749L1018.45 266.207ZM1014.22 262.233L1011.4 259.584L1012.77 258.126L1015.59 260.776L1014.22 262.233ZM1008.58 256.934L1005.77 254.285L1007.14 252.828L1009.95 255.477L1008.58 256.934ZM1002.95 251.636L1000.13 248.987L1001.5 247.53L1004.32 250.179L1002.95 251.636ZM997.314 246.337L994.496 243.688L995.866 242.231L998.684 244.88L997.314 246.337ZM991.678 241.039L988.861 238.39L990.231 236.933L993.048 239.582L991.678 241.039ZM986.043 235.74L983.226 233.091L984.596 231.634L987.413 234.283L986.043 235.74ZM980.408 230.442L977.59 227.793L978.96 226.336L981.778 228.985L980.408 230.442ZM974.773 225.144L973.364 223.819L974.734 222.362L976.143 223.687L974.773 225.144ZM973.364 223.819C972.858 223.343 972.361 222.862 971.874 222.375L973.288 220.96C973.761 221.433 974.243 221.9 974.734 222.362L973.364 223.819ZM969.043 219.367C968.123 218.328 967.242 217.268 966.401 216.189L967.979 214.96C968.794 216.006 969.648 217.034 970.54 218.042L969.043 219.367ZM963.964 212.852C963.183 211.707 962.442 210.545 961.742 209.366L963.462 208.345C964.14 209.488 964.858 210.614 965.616 211.724L963.964 212.852ZM959.747 205.746C959.118 204.514 958.531 203.266 957.986 202.007L959.822 201.213C960.35 202.434 960.918 203.643 961.528 204.837L959.747 205.746ZM956.467 198.162C956 196.861 955.576 195.55 955.195 194.229L957.117 193.675C957.486 194.955 957.897 196.226 958.349 197.487L956.467 198.162ZM954.176 190.224C953.877 188.876 953.622 187.521 953.41 186.162L955.386 185.853C955.592 187.171 955.839 188.485 956.128 189.792L954.176 190.224ZM952.901 182.059C952.774 180.686 952.691 179.31 952.65 177.934L954.649 177.875C954.689 179.209 954.77 180.543 954.893 181.875L952.901 182.059ZM952.655 173.801C952.7 172.424 952.787 171.048 952.917 169.677L954.908 169.866C954.782 171.196 954.697 172.53 954.654 173.866L952.655 173.801ZM953.434 165.577C953.648 164.216 953.905 162.862 954.204 161.517L956.156 161.95C955.867 163.255 955.618 164.569 955.409 165.889L953.434 165.577ZM955.224 157.512C955.605 156.189 956.028 154.877 956.492 153.578L958.375 154.251C957.925 155.51 957.515 156.783 957.146 158.066L955.224 157.512ZM958.003 149.731C958.545 148.466 959.129 147.217 959.752 145.985L961.537 146.888C960.932 148.083 960.367 149.294 959.84 150.52L958.003 149.731ZM961.734 142.358C962.431 141.174 963.167 140.008 963.942 138.864L965.598 139.985C964.847 141.094 964.133 142.224 963.458 143.372L961.734 142.358ZM966.367 135.517C967.208 134.431 968.086 133.369 969.001 132.331L970.501 133.654C969.614 134.66 968.763 135.69 967.948 136.741L966.367 135.517ZM971.833 129.32C972.803 128.352 973.809 127.409 974.85 126.495L976.17 127.997C975.16 128.884 974.186 129.797 973.245 130.735L971.833 129.32ZM978.039 123.866C979.122 123.03 980.237 122.222 981.386 121.443L982.508 123.099C981.394 123.854 980.311 124.638 979.262 125.449L978.039 123.866ZM984.876 119.232C985.468 118.881 986.069 118.538 986.677 118.203L987.643 119.954C987.052 120.28 986.469 120.613 985.894 120.953L984.876 119.232Z" fill="black"/>
</svg>
