<svg width="1144" height="805" viewBox="0 0 1144 805" fill="none" xmlns="http://www.w3.org/2000/svg">
<path d="M152.654 68.0939L153.109 67.1139L165.079 72.7139V73.4839L153.109 79.0489L152.654 78.1039L163.364 73.0989L152.654 68.0939ZM176.03 82.7239V82.3739L178.935 81.7089V59.5539H175.575V59.0289L182.12 57.9789L182.575 58.4689V81.7089L185.515 82.3739V82.7239H176.03ZM188.576 70.4739C188.576 66.6939 189.474 63.6722 191.271 61.4089C193.091 59.1455 195.447 58.0139 198.341 58.0139C201.234 58.0139 203.579 59.1455 205.376 61.4089C207.196 63.6722 208.106 66.6939 208.106 70.4739C208.106 74.2772 207.196 77.3105 205.376 79.5739C203.579 81.8139 201.234 82.9339 198.341 82.9339C195.424 82.9339 193.067 81.8139 191.271 79.5739C189.474 77.3105 188.576 74.2772 188.576 70.4739ZM192.426 70.4739C192.426 74.3239 192.962 77.2755 194.036 79.3289C195.109 81.3822 196.544 82.4089 198.341 82.4089C200.114 82.4089 201.537 81.3822 202.611 79.3289C203.707 77.2755 204.256 74.3239 204.256 70.4739C204.256 66.6472 203.707 63.7072 202.611 61.6539C201.537 59.5772 200.114 58.5389 198.341 58.5389C196.544 58.5389 195.109 59.5772 194.036 61.6539C192.962 63.7072 192.426 66.6472 192.426 70.4739ZM211.442 70.4739C211.442 66.6939 212.34 63.6722 214.137 61.4089C215.957 59.1455 218.314 58.0139 221.207 58.0139C224.1 58.0139 226.445 59.1455 228.242 61.4089C230.062 63.6722 230.972 66.6939 230.972 70.4739C230.972 74.2772 230.062 77.3105 228.242 79.5739C226.445 81.8139 224.1 82.9339 221.207 82.9339C218.29 82.9339 215.934 81.8139 214.137 79.5739C212.34 77.3105 211.442 74.2772 211.442 70.4739ZM215.292 70.4739C215.292 74.3239 215.829 77.2755 216.902 79.3289C217.975 81.3822 219.41 82.4089 221.207 82.4089C222.98 82.4089 224.404 81.3822 225.477 79.3289C226.574 77.2755 227.122 74.3239 227.122 70.4739C227.122 66.6472 226.574 63.7072 225.477 61.6539C224.404 59.5772 222.98 58.5389 221.207 58.5389C219.41 58.5389 217.975 59.5772 216.902 61.6539C215.829 63.7072 215.292 66.6472 215.292 70.4739ZM127.282 116.884L127.527 116.639C127.877 116.896 128.227 117.024 128.577 117.024C129.021 117.024 129.347 116.826 129.557 116.429C129.791 116.032 130.059 115.297 130.362 114.224L130.852 112.579C131.436 110.689 132.766 109.557 134.842 109.184C133.162 109.021 131.821 108.554 130.817 107.784C129.837 106.991 129.347 105.976 129.347 104.739C129.347 103.362 129.966 102.266 131.202 101.449C132.439 100.632 134.061 100.224 136.067 100.224H145.972V100.539L143.872 101.064V116.709L145.972 117.374V117.724H138.132V117.374L140.232 116.709V109.499H138.482C137.269 109.499 136.336 109.744 135.682 110.234C135.052 110.724 134.586 111.494 134.282 112.544L133.792 114.399C133.606 115.029 133.442 115.519 133.302 115.869C133.186 116.196 132.999 116.546 132.742 116.919C132.486 117.269 132.159 117.526 131.762 117.689C131.389 117.829 130.911 117.899 130.327 117.899C128.974 117.899 127.959 117.561 127.282 116.884ZM137.327 108.834H140.232V100.889H137.327C136.021 100.889 134.982 101.227 134.212 101.904C133.442 102.581 133.057 103.561 133.057 104.844C133.057 106.127 133.442 107.119 134.212 107.819C134.982 108.496 136.021 108.834 137.327 108.834ZM152.493 109.079V108.239C153.357 108.309 154.115 108.344 154.768 108.344C157.265 108.344 158.513 107.096 158.513 104.599C158.513 103.292 158.198 102.312 157.568 101.659C156.962 100.982 156.098 100.644 154.978 100.644C153.882 100.644 152.82 100.994 151.793 101.694C150.767 102.371 150.125 103.526 149.868 105.159H149.133V100.854L149.483 100.504L150.253 101.134C151.793 100.434 153.578 100.084 155.608 100.084C157.662 100.084 159.283 100.481 160.473 101.274C161.663 102.067 162.258 103.129 162.258 104.459C162.258 105.532 161.873 106.442 161.103 107.189C160.333 107.936 159.272 108.426 157.918 108.659C159.482 108.869 160.707 109.371 161.593 110.164C162.503 110.934 162.958 111.926 162.958 113.139C162.958 114.609 162.282 115.776 160.928 116.639C159.598 117.479 157.743 117.899 155.363 117.899C153.45 117.899 151.782 117.584 150.358 116.954C148.958 116.301 148.258 115.402 148.258 114.259C148.258 113.699 148.433 113.244 148.783 112.894C149.133 112.544 149.577 112.369 150.113 112.369C150.673 112.369 151.128 112.567 151.478 112.964C151.852 113.361 152.038 113.909 152.038 114.609V116.639C152.995 117.106 153.998 117.339 155.048 117.339C156.355 117.339 157.37 116.977 158.093 116.254C158.84 115.507 159.213 114.434 159.213 113.034C159.213 110.327 157.755 108.974 154.838 108.974C154.162 108.974 153.38 109.009 152.493 109.079ZM174.439 117.724H164.814V117.444L166.914 116.884V101.239L164.814 100.574V100.224H172.654V100.574L170.554 101.239V107.749H174.439C176.446 107.749 178.079 108.204 179.339 109.114C180.599 110.024 181.229 111.237 181.229 112.754C181.229 114.271 180.599 115.484 179.339 116.394C178.102 117.281 176.469 117.724 174.439 117.724ZM173.354 108.414H170.554V117.094H173.354C174.614 117.094 175.617 116.721 176.364 115.974C177.111 115.227 177.484 114.154 177.484 112.754C177.484 111.354 177.111 110.281 176.364 109.534C175.617 108.787 174.614 108.414 173.354 108.414ZM187.669 101.239V116.709L189.769 117.374V117.724H181.929V117.374L184.029 116.709V101.239L181.929 100.574V100.224H189.769V100.574L187.669 101.239ZM204.503 102.709V101.204C204.386 101.134 204.258 101.099 204.118 101.099C203.208 101.099 202.554 101.962 202.158 103.689L201.738 105.544C201.411 106.967 200.653 107.947 199.463 108.484H200.093C202.006 108.484 203.418 108.776 204.328 109.359C205.238 109.942 205.856 110.922 206.183 112.299L206.603 114.119C206.859 115.169 207.104 115.916 207.338 116.359C207.571 116.802 207.909 117.024 208.353 117.024C208.703 117.024 209.053 116.896 209.403 116.639L209.683 116.884C209.006 117.561 207.979 117.899 206.603 117.899C205.506 117.899 204.724 117.619 204.258 117.059C203.791 116.476 203.394 115.554 203.068 114.294L202.578 112.159C202.298 111.039 201.878 110.234 201.318 109.744C200.758 109.254 199.871 109.009 198.658 109.009H196.873V116.709L198.868 117.374V117.724H191.133V117.374L193.233 116.709V101.239L191.133 100.574V100.224H198.973V100.574L196.873 101.239V108.449C197.969 108.449 198.868 108.192 199.568 107.679C200.291 107.142 200.758 106.431 200.968 105.544L201.353 103.724C201.866 101.274 203.138 100.049 205.168 100.049C206.054 100.049 206.801 100.259 207.408 100.679C208.014 101.099 208.318 101.752 208.318 102.639C208.318 103.292 208.143 103.794 207.793 104.144C207.466 104.471 207.023 104.634 206.463 104.634C205.879 104.634 205.401 104.459 205.028 104.109C204.678 103.759 204.503 103.292 204.503 102.709ZM213.628 115.484C211.995 113.874 211.178 111.716 211.178 109.009C211.178 106.302 211.995 104.144 213.628 102.534C215.262 100.901 217.397 100.084 220.033 100.084C222.647 100.084 224.77 100.901 226.403 102.534C228.037 104.167 228.853 106.326 228.853 109.009C228.853 111.716 228.037 113.874 226.403 115.484C224.793 117.094 222.67 117.899 220.033 117.899C217.397 117.899 215.262 117.094 213.628 115.484ZM214.923 109.009C214.923 111.692 215.39 113.757 216.323 115.204C217.257 116.651 218.493 117.374 220.033 117.374C221.597 117.374 222.833 116.651 223.743 115.204C224.677 113.757 225.143 111.692 225.143 109.009C225.143 106.302 224.677 104.226 223.743 102.779C222.833 101.332 221.597 100.609 220.033 100.609C218.493 100.609 217.257 101.332 216.323 102.779C215.39 104.226 214.923 106.302 214.923 109.009ZM230.883 100.224H241.313C243.063 100.224 244.475 100.609 245.548 101.379C246.622 102.149 247.158 103.199 247.158 104.529C247.158 105.626 246.785 106.547 246.038 107.294C245.292 108.017 244.277 108.496 242.993 108.729C244.557 108.939 245.782 109.441 246.668 110.234C247.578 111.004 248.033 111.972 248.033 113.139C248.033 114.562 247.415 115.682 246.178 116.499C244.965 117.316 243.343 117.724 241.313 117.724H230.883V117.444L232.983 116.884V101.064L230.883 100.539V100.224ZM240.193 109.044H236.623V117.094H240.193C241.453 117.094 242.445 116.756 243.168 116.079C243.915 115.379 244.288 114.376 244.288 113.069C244.288 111.762 243.915 110.771 243.168 110.094C242.445 109.394 241.453 109.044 240.193 109.044ZM236.623 108.379H240.193C241.197 108.379 241.99 108.064 242.573 107.434C243.157 106.781 243.448 105.847 243.448 104.634C243.448 103.421 243.157 102.499 242.573 101.869C241.99 101.216 241.197 100.889 240.193 100.889H236.623V108.379ZM172.231 152.374L174.331 151.709V136.239L172.231 135.574V135.224H179.791V135.574L177.971 136.239V143.379H186.476V136.239L184.656 135.574V135.224H192.216V135.574L190.116 136.239V151.709L192.216 152.374V152.724H184.656V152.374L186.476 151.709V144.114H177.971V151.709L179.791 152.374V152.724H172.231V152.374ZM205.704 150.624L205.599 150.519C203.873 152.129 201.784 152.934 199.334 152.934C197.748 152.934 196.558 152.572 195.764 151.849C194.994 151.126 194.609 150.134 194.609 148.874C194.609 147.591 195.099 146.564 196.079 145.794C197.083 145.024 198.156 144.511 199.299 144.254C200.443 143.974 202.414 143.601 205.214 143.134C205.261 143.111 205.296 143.099 205.319 143.099C205.366 143.099 205.413 143.099 205.459 143.099C205.506 143.076 205.553 143.064 205.599 143.064V139.774C205.599 138.537 205.273 137.546 204.619 136.799C203.989 136.052 203.103 135.679 201.959 135.679C201.026 135.679 200.163 135.947 199.369 136.484V139.319C199.369 140.019 199.171 140.579 198.774 140.999C198.378 141.419 197.864 141.629 197.234 141.629C196.628 141.629 196.126 141.442 195.729 141.069C195.333 140.672 195.134 140.124 195.134 139.424C195.134 138.117 195.811 137.079 197.164 136.309C198.541 135.516 200.163 135.119 202.029 135.119C204.293 135.119 206.054 135.621 207.314 136.624C208.598 137.604 209.239 138.876 209.239 140.439V151.114C209.239 151.697 209.519 151.989 210.079 151.989C210.593 151.989 210.978 151.861 211.234 151.604L211.479 151.849C210.849 152.479 209.788 152.794 208.294 152.794C206.731 152.794 205.868 152.071 205.704 150.624ZM205.599 149.714V143.589H205.564H205.529H205.494L205.459 143.624H205.424H205.389H205.354H205.319H205.284C202.578 144.044 200.839 144.464 200.069 144.884C198.903 145.514 198.319 146.692 198.319 148.419C198.319 149.492 198.576 150.309 199.089 150.869C199.603 151.429 200.314 151.709 201.224 151.709C202.881 151.709 204.339 151.044 205.599 149.714ZM112.747 172.709V171.204C112.63 171.134 112.502 171.099 112.362 171.099C111.452 171.099 110.799 171.962 110.402 173.689L109.982 175.544C109.655 176.967 108.897 177.947 107.707 178.484H108.337C110.25 178.484 111.662 178.776 112.572 179.359C113.482 179.942 114.1 180.922 114.427 182.299L114.847 184.119C115.104 185.169 115.349 185.916 115.582 186.359C115.815 186.802 116.154 187.024 116.597 187.024C116.947 187.024 117.297 186.896 117.647 186.639L117.927 186.884C117.25 187.561 116.224 187.899 114.847 187.899C113.75 187.899 112.969 187.619 112.502 187.059C112.035 186.476 111.639 185.554 111.312 184.294L110.822 182.159C110.542 181.039 110.122 180.234 109.562 179.744C109.002 179.254 108.115 179.009 106.902 179.009H105.117V186.709L107.112 187.374V187.724H99.3771V187.374L101.477 186.709V171.239L99.3771 170.574V170.224H107.217V170.574L105.117 171.239V178.449C106.214 178.449 107.112 178.192 107.812 177.679C108.535 177.142 109.002 176.431 109.212 175.544L109.597 173.724C110.11 171.274 111.382 170.049 113.412 170.049C114.299 170.049 115.045 170.259 115.652 170.679C116.259 171.099 116.562 171.752 116.562 172.639C116.562 173.292 116.387 173.794 116.037 174.144C115.71 174.471 115.267 174.634 114.707 174.634C114.124 174.634 113.645 174.459 113.272 174.109C112.922 173.759 112.747 173.292 112.747 172.709ZM119.236 187.374L121.336 186.709V171.239L119.236 170.574V170.224H126.831V170.574L124.976 171.239V181.704L124.871 184.399L124.976 184.504L133.516 171.869V171.239L131.661 170.574V170.224H139.256V170.574L137.156 171.239V186.709L139.256 187.374V187.724H131.661V187.374L133.516 186.709V176.244L133.621 173.549L133.516 173.444L124.976 186.079V186.709L126.831 187.374V187.724H119.236V187.374ZM140.598 194.724V194.374L142.698 193.709V171.379L140.598 170.924V170.539L145.883 169.979L146.338 170.469L146.233 172.394L146.338 172.499C147.878 170.889 149.791 170.084 152.078 170.084C154.341 170.084 156.045 170.854 157.188 172.394C158.355 173.934 158.938 175.999 158.938 178.589C158.938 181.552 158.191 183.851 156.698 185.484C155.205 187.094 153.116 187.899 150.433 187.899C148.87 187.899 147.505 187.584 146.338 186.954V193.709L149.488 194.374V194.724H140.598ZM146.338 173.269V186.429C147.528 187.059 148.671 187.374 149.768 187.374C151.518 187.374 152.86 186.662 153.793 185.239C154.75 183.792 155.228 181.762 155.228 179.149C155.228 176.792 154.785 174.902 153.898 173.479C153.011 172.032 151.821 171.309 150.328 171.309C148.765 171.309 147.435 171.962 146.338 173.269ZM160.969 187.374L163.069 186.709V171.239L160.969 170.574V170.224H168.564V170.574L166.709 171.239V181.704L166.604 184.399L166.709 184.504L175.249 171.869V171.239L173.394 170.574V170.224H180.989V170.574L178.889 171.239V186.709L180.989 187.374V187.724H173.394V187.374L175.249 186.709V176.244L175.354 173.549L175.249 173.444L166.709 186.079V186.709L168.564 187.374V187.724H160.969V187.374ZM187.861 182.509L189.086 171.064L186.986 170.539V170.224H201.336V170.539L199.236 171.064V186.709L201.336 187.374V187.724H193.776V187.374L195.631 186.709V170.924H189.786L188.596 182.404C188.223 186.067 187.033 187.899 185.026 187.899C184.28 187.899 183.626 187.701 183.066 187.304C182.506 186.884 182.226 186.242 182.226 185.379C182.226 184.749 182.39 184.271 182.716 183.944C183.043 183.594 183.475 183.419 184.011 183.419C184.595 183.419 185.061 183.594 185.411 183.944C185.761 184.271 185.936 184.726 185.936 185.309V186.499C186.076 186.546 186.181 186.569 186.251 186.569C186.601 186.569 186.916 186.207 187.196 185.484C187.5 184.761 187.721 183.769 187.861 182.509ZM208.232 182.509L209.457 171.064L207.357 170.539V170.224H221.707V170.539L219.607 171.064V186.709L221.707 187.374V187.724H214.147V187.374L216.002 186.709V170.924H210.157L208.967 182.404C208.594 186.067 207.404 187.899 205.397 187.899C204.651 187.899 203.997 187.701 203.437 187.304C202.877 186.884 202.597 186.242 202.597 185.379C202.597 184.749 202.761 184.271 203.087 183.944C203.414 183.594 203.846 183.419 204.382 183.419C204.966 183.419 205.432 183.594 205.782 183.944C206.132 184.271 206.307 184.726 206.307 185.309V186.499C206.447 186.546 206.552 186.569 206.622 186.569C206.972 186.569 207.287 186.207 207.567 185.484C207.871 184.761 208.092 183.769 208.232 182.509ZM223.073 187.374L225.173 186.709V171.239L223.073 170.574V170.224H230.668V170.574L228.813 171.239V181.704L228.708 184.399L228.813 184.504L237.353 171.869V171.239L235.498 170.574V170.224H243.093V170.574L240.993 171.239V186.709L243.093 187.374V187.724H235.498V187.374L237.353 186.709V176.244L237.458 173.549L237.353 173.444L228.813 186.079V186.709L230.668 187.374V187.724H223.073V187.374ZM262.321 187.724H244.436V187.444L246.536 186.884V171.239L244.436 170.574V170.224H251.996V170.574L250.176 171.239V187.024H258.576V171.239L256.721 170.574V170.224H264.316V170.574L262.216 171.239V187.024H264.526V192.414H263.756L262.321 187.724ZM282.663 178.974H270.448C270.448 181.471 271.02 183.407 272.163 184.784C273.306 186.137 274.998 186.814 277.238 186.814C279.291 186.814 281.006 186.126 282.383 184.749L282.768 185.169C280.948 186.989 278.603 187.899 275.733 187.899C272.793 187.899 270.553 187.094 269.013 185.484C267.473 183.874 266.703 181.774 266.703 179.184C266.703 176.431 267.52 174.226 269.153 172.569C270.81 170.912 272.921 170.084 275.488 170.084C277.775 170.084 279.653 170.737 281.123 172.044C282.593 173.351 283.328 175.042 283.328 177.119C283.328 177.679 283.27 178.146 283.153 178.519L282.663 178.974ZM275.628 170.609C274.251 170.609 273.061 171.286 272.058 172.639C271.055 173.969 270.518 175.906 270.448 178.449L279.758 177.924C279.758 175.521 279.396 173.701 278.673 172.464C277.95 171.227 276.935 170.609 275.628 170.609Z" fill="black"/>
<path d="M718.445 61.2023L731.852 73.8533V802.98H373.086V73.8176L388.605 58.2585L396.237 52.8674C403.09 48.0271 410.535 44.0867 418.392 41.143L447.385 30.2793L492.454 19.6055C497.439 18.425 502.509 17.6371 507.617 17.2491L547.098 14.2504C552.058 13.8737 557.039 13.8751 561.999 14.2547L600.34 17.189C605.919 17.616 611.451 18.52 616.876 19.8911L649.984 28.2591C655.253 29.591 660.403 31.359 665.379 33.5448L692.63 45.514C698.367 48.0336 703.848 51.0975 709 54.6637L718.445 61.2023Z" fill="white" stroke="black" stroke-width="4"/>
<path d="M705.21 66.6796L718.541 77.6863V791.301H387.231V76.8108L400.476 65.0941L417.927 57.1698L455.825 42.2751L496.558 32.1567C501.76 30.8646 507.058 30.0013 512.401 29.5757L554.847 26.1942L595.108 27.8708C601.428 28.134 607.709 29.0086 613.861 30.4823L642.658 37.3808C648.379 38.7513 653.965 40.6341 659.348 43.0064L681.499 52.7684C686.358 54.9097 691.035 57.4425 695.484 60.3417L705.21 66.6796Z" fill="#F3B9D5" stroke="black" stroke-width="4"/>
<path d="M701.067 94.5346V195.283H405.535V94.4597L416.288 87.3426L416.307 87.3294L416.327 87.3158L423.057 82.626C428.97 78.5053 435.32 75.0496 441.991 72.3215L455.943 66.6159C460.785 64.6358 465.778 63.0465 470.874 61.8633L502.481 54.5251L544.164 49.3816C552.166 48.3943 560.258 48.3981 568.259 49.3929L609.506 54.522L635.688 61.2369C641.862 62.8203 647.866 65.0022 653.616 67.7516L671.791 76.4417L691.979 87.3518L701.067 94.5346Z" fill="white" stroke="black" stroke-width="4"/>
<rect x="405.535" y="246.413" width="295.532" height="525.702" fill="white" stroke="black" stroke-width="4"/>
<path d="M668.692 298.746L678.603 305.738V772.116H425.505V305.15L435.334 297.721L448.657 292.552L477.693 282.802L514.887 274.908L553.561 272.276L583.526 273.342C588.958 273.535 594.366 274.18 599.691 275.27L619.804 279.387C624.87 280.424 629.846 281.86 634.686 283.682L649.359 289.207C653.884 290.91 658.276 292.946 662.5 295.298L668.692 298.746Z" fill="white" stroke="black" stroke-width="4"/>
<path d="M551.67 272.275L563.781 272.632V772.267H540.324V272.986L551.67 272.275Z" fill="#F3B9D5" stroke="black" stroke-width="4"/>
<rect x="425.505" y="670.175" width="114.149" height="12.6835" fill="#F3B9D5" stroke="black" stroke-width="4"/>
<rect x="564.453" y="670.175" width="114.149" height="12.6835" fill="#F3B9D5" stroke="black" stroke-width="4"/>
<rect x="564.453" y="524.194" width="114.149" height="12.6835" fill="#F3B9D5" stroke="black" stroke-width="4"/>
<rect x="424.673" y="524.194" width="114.149" height="12.6835" fill="#F3B9D5" stroke="black" stroke-width="4"/>
<rect x="564.453" y="410.747" width="114.149" height="12.6835" fill="#F3B9D5" stroke="black" stroke-width="4"/>
<rect x="425.505" y="410.747" width="114.149" height="12.6835" fill="#F3B9D5" stroke="black" stroke-width="4"/>
<path d="M659.306 551.618C662.169 549.904 665.754 549.904 668.618 551.618V616.365C665.87 618.448 662.054 618.448 659.306 616.365V551.618Z" fill="#FFE5F6" stroke="black" stroke-width="4"/>
<rect x="40.4102" y="215.549" width="305.516" height="514.023" fill="white" stroke="black" stroke-width="4"/>
<path d="M8.95887 304.056L5.19375 288.957H57.6842L55.5577 301.749C54.6161 307.413 51.1555 312.343 46.149 315.154C45.1593 315.71 44.1217 316.175 43.0487 316.545L41.5886 317.048C35.454 319.163 28.8026 319.251 22.6139 317.301L20.9184 316.767C19.3037 316.258 17.7696 315.522 16.3622 314.582C12.672 312.115 10.0328 308.363 8.95887 304.056Z" fill="#F3B9D5" stroke="black" stroke-width="4"/>
<rect x="4.63379" y="268.103" width="386.224" height="20.1911" fill="white" stroke="black" stroke-width="4"/>
<path d="M4.96034 267.439L39.8682 158.825H346.571L389.905 267.439H4.96034Z" fill="white" stroke="black" stroke-width="4"/>
<path d="M343.397 55.4254L345.789 58.2844V138.976H40.2725V58.4569L54.0628 46.2112L64.1149 39.4085C68.3419 36.5479 72.7858 34.022 77.4063 31.8536L89.8021 26.0364L107.565 19.4098L128.68 12.7685L149.759 7.38166L169.991 4.06986L182.459 2.86794C188.392 2.29605 194.364 2.26652 200.302 2.77971L215.265 4.07297L238.024 7.39195L259.466 11.9394L280.544 19.3979L280.559 19.4031L300.028 26.4634L312.497 32.0488C317.06 34.0931 321.438 36.5303 325.579 39.333C332.239 43.8404 338.237 49.257 343.397 55.4254Z" fill="#F3B9D5" stroke="black" stroke-width="4"/>
<path d="M301.067 65.3999L302.662 67.3035V124.795H82.8447V67.476L92.6022 58.8261L98.049 55.1463C102.275 52.2915 106.716 49.7709 111.334 47.6075L118.32 44.3345L131.131 39.5638L146.371 34.7783L161.575 30.8993L176.164 28.5153L182.658 27.8904C188.58 27.3204 194.542 27.291 200.47 27.8025L208.768 28.5184L225.192 30.9095L240.644 34.1811L255.848 39.5519L255.863 39.5571L269.918 44.6455L278.92 48.6709C282.188 50.1326 285.323 51.8754 288.29 53.8798C293.065 57.1056 297.365 60.9832 301.067 65.3999Z" fill="#FFE5F6" stroke="black" stroke-width="4"/>
<path d="M4.96204 267.438L39.8696 158.826L78.0352 158.826L58.3747 267.438L4.96204 267.438Z" fill="#F3B9D5" stroke="black" stroke-width="4"/>
<path d="M78.3584 159.243L121.556 159.243L114.335 267.438L59.1019 267.438L78.3584 159.243Z" fill="#FFE5F6" stroke="black" stroke-width="4"/>
<path d="M115.023 267.437L122.647 158.826L165.831 158.826L167.837 267.437L115.023 267.437Z" fill="#F3B9D5" stroke="black" stroke-width="4"/>
<path d="M222.039 267.437L212.41 158.826L260.491 158.826L275.737 267.438L222.039 267.437Z" fill="#F3B9D5" stroke="black" stroke-width="4"/>
<path d="M276.447 267.438L261.2 158.827L307.276 158.827L335.362 267.438L276.447 267.438Z" fill="#FFE5F6" stroke="black" stroke-width="4"/>
<path d="M336.162 267.438L308.075 158.826L346.995 158.826L390.729 267.438L336.162 267.438Z" fill="#F3B9D5" stroke="black" stroke-width="4"/>
<path d="M166.51 267.315L166.51 158.703L212.135 158.703L221.408 267.315L166.51 267.315Z" fill="#FFE5F6" stroke="black" stroke-width="4"/>
<path d="M41.9634 729.573L81.5561 664.332L306.009 663.506L344.449 729.573H41.9634Z" fill="#F3B9D5" stroke="black" stroke-width="4"/>
<rect x="80.3486" y="288.957" width="225.641" height="374.716" fill="white" stroke="black" stroke-width="4"/>
<path d="M286.025 304.056L282.26 288.957H334.751L332.624 301.749C331.683 307.413 328.222 312.343 323.215 315.154C322.226 315.71 321.188 316.175 320.115 316.545L318.655 317.048C312.52 319.163 305.869 319.251 299.68 317.301L297.985 316.767C296.37 316.258 294.836 315.522 293.429 314.582C289.738 312.115 287.099 308.363 286.025 304.056Z" fill="#FFE5F6" stroke="black" stroke-width="4"/>
<path d="M230.28 304.056L226.515 288.957H279.005L276.879 301.749C275.937 307.413 272.477 312.343 267.47 315.154C266.481 315.71 265.443 316.175 264.37 316.545L262.91 317.048C256.775 319.163 250.124 319.251 243.935 317.301L242.24 316.767C240.625 316.258 239.091 315.522 237.683 314.582C233.993 312.115 231.354 308.363 230.28 304.056Z" fill="#F3B9D5" stroke="black" stroke-width="4"/>
<path d="M172.87 304.056L169.105 288.957H221.595L219.469 301.749C218.527 307.413 215.067 312.343 210.06 315.154C209.07 315.71 208.033 316.175 206.96 316.545L205.5 317.048C199.365 319.163 192.714 319.251 186.525 317.301L184.83 316.767C183.215 316.258 181.681 315.522 180.273 314.582C176.583 312.115 173.944 308.363 172.87 304.056Z" fill="#FFE5F6" stroke="black" stroke-width="4"/>
<path d="M118.787 304.056L115.022 288.957H167.512L165.386 301.749C164.444 307.413 160.984 312.343 155.977 315.154C154.987 315.71 153.95 316.175 152.877 316.545L151.417 317.048C145.282 319.163 138.631 319.251 132.442 317.301L130.747 316.767C129.132 316.258 127.598 315.522 126.19 314.582C122.5 312.115 119.861 308.363 118.787 304.056Z" fill="#F3B9D5" stroke="black" stroke-width="4"/>
<path d="M63.8729 304.056L60.1078 288.957H112.598L110.472 301.749C109.53 307.413 106.07 312.343 101.063 315.154C100.073 315.71 99.0358 316.175 97.9628 316.545L96.5026 317.048C90.368 319.163 83.7167 319.251 77.528 317.301L75.8324 316.767C74.2178 316.258 72.6837 315.522 71.2762 314.582C67.5861 312.115 64.9468 308.363 63.8729 304.056Z" fill="#FFE5F6" stroke="black" stroke-width="4"/>
<rect x="40.4102" y="729.401" width="305.516" height="63.5683" fill="#F3B9D5" stroke="black" stroke-width="4"/>
<rect x="40.4102" y="793.633" width="305.516" height="9.34682" fill="white" stroke="black" stroke-width="4"/>
<rect x="-2.00044" y="1.99955" width="483.145" height="9.31253" transform="matrix(-0.000221366 1 -1 -0.000222507 41.7487 321.856)" fill="white" stroke="black" stroke-width="4"/>
<path d="M355.911 318.211L355.911 802.969L346.599 802.967L346.707 318.211L355.911 318.211Z" fill="white" stroke="black" stroke-width="4"/>
<path d="M341.771 304.056L338.006 288.957H390.497L388.37 301.749C387.429 307.413 383.968 312.343 378.961 315.154C377.972 315.71 376.934 316.175 375.861 316.545L374.401 317.048C368.266 319.163 361.615 319.251 355.426 317.301L353.731 316.767C352.116 316.258 350.582 315.522 349.175 314.582C345.485 312.115 342.845 308.363 341.771 304.056Z" fill="#F3B9D5" stroke="black" stroke-width="4"/>
<rect x="760.953" y="215.549" width="305.516" height="514.023" fill="white" stroke="black" stroke-width="4"/>
<path d="M729.5 304.057L725.735 288.957H778.225L776.099 301.749C775.157 307.413 771.696 312.344 766.69 315.155C765.7 315.71 764.663 316.176 763.59 316.545L762.13 317.049C755.995 319.163 749.344 319.251 743.155 317.301L741.459 316.767C739.845 316.258 738.311 315.523 736.903 314.582C733.213 312.115 730.574 308.363 729.5 304.057Z" fill="#F3B9D5" stroke="black" stroke-width="4"/>
<rect x="725.175" y="268.103" width="386.224" height="20.1911" fill="white" stroke="black" stroke-width="4"/>
<path d="M725.502 267.439L760.41 158.825H1067.11L1110.45 267.439H725.502Z" fill="white" stroke="black" stroke-width="4"/>
<path d="M1063.94 56.2596L1066.33 59.1186V139.81H760.815V59.2911L774.606 47.0454L784.658 40.2427C788.885 37.3822 793.329 34.8562 797.949 32.6879L810.345 26.8706L828.108 20.2441L849.223 13.6027L870.302 8.21589L890.534 4.90409L903.002 3.70217C908.935 3.13028 914.907 3.10074 920.845 3.61394L935.808 4.9072L958.567 8.22618L980.009 12.7736L1001.09 20.2321L1001.1 20.2374L1020.57 27.2976L1033.04 32.883C1037.6 34.9273 1041.98 37.3646 1046.12 40.1672C1052.78 44.6746 1058.78 50.0912 1063.94 56.2596Z" fill="#F3B9D5" stroke="black" stroke-width="4"/>
<path d="M1021.61 65.4001L1023.2 67.3037V124.795H803.387V67.4762L813.144 58.8263L818.591 55.1465C822.817 52.2918 827.258 49.7712 831.876 47.6077L838.862 44.3348L851.673 39.564L866.913 34.7785L882.117 30.8995L896.706 28.5156L903.2 27.8906C909.122 27.3207 915.084 27.2912 921.012 27.8027L929.31 28.5187L945.734 30.9097L961.186 34.1813L976.39 39.5521L976.405 39.5573L990.46 44.6458L999.462 48.6711C1002.73 50.1328 1005.87 51.8756 1008.83 53.88C1013.61 57.1059 1017.91 60.9834 1021.61 65.4001Z" fill="#FFE5F6" stroke="black" stroke-width="4"/>
<path d="M725.504 267.439L760.412 158.826L798.577 158.826L778.917 267.439L725.504 267.439Z" fill="#F3B9D5" stroke="black" stroke-width="4"/>
<path d="M798.9 159.244L842.098 159.244L834.877 267.438L779.644 267.438L798.9 159.244Z" fill="#FFE5F6" stroke="black" stroke-width="4"/>
<path d="M835.565 267.438L843.189 158.826L886.373 158.826L888.379 267.438L835.565 267.438Z" fill="#F3B9D5" stroke="black" stroke-width="4"/>
<path d="M942.58 267.438L932.951 158.826L981.032 158.826L996.278 267.438L942.58 267.438Z" fill="#F3B9D5" stroke="black" stroke-width="4"/>
<path d="M996.989 267.438L981.742 158.827L1027.82 158.827L1055.9 267.438L996.989 267.438Z" fill="#FFE5F6" stroke="black" stroke-width="4"/>
<path d="M1056.7 267.438L1028.62 158.827L1067.54 158.827L1111.27 267.438L1056.7 267.438Z" fill="#F3B9D5" stroke="black" stroke-width="4"/>
<path d="M887.051 267.316L887.051 158.703L932.676 158.703L941.949 267.316L887.051 267.316Z" fill="#FFE5F6" stroke="black" stroke-width="4"/>
<path d="M762.506 729.573L802.099 664.332L1026.55 663.506L1064.99 729.573H762.506Z" fill="#F3B9D5" stroke="black" stroke-width="4"/>
<rect x="800.891" y="288.957" width="225.641" height="374.716" fill="white" stroke="black" stroke-width="4"/>
<path d="M1006.57 304.057L1002.8 288.957H1055.29L1053.17 301.749C1052.22 307.413 1048.76 312.344 1043.76 315.155C1042.77 315.71 1041.73 316.176 1040.66 316.545L1039.2 317.049C1033.06 319.163 1026.41 319.251 1020.22 317.301L1018.53 316.767C1016.91 316.258 1015.38 315.523 1013.97 314.582C1010.28 312.115 1007.64 308.363 1006.57 304.057Z" fill="#FFE5F6" stroke="black" stroke-width="4"/>
<path d="M950.822 304.057L947.057 288.957H999.547L997.421 301.749C996.479 307.413 993.019 312.344 988.012 315.155C987.023 315.71 985.985 316.176 984.912 316.545L983.452 317.049C977.317 319.163 970.666 319.251 964.477 317.301L962.782 316.767C961.167 316.258 959.633 315.523 958.225 314.582C954.535 312.115 951.896 308.363 950.822 304.057Z" fill="#F3B9D5" stroke="black" stroke-width="4"/>
<path d="M893.411 304.057L889.646 288.957H942.136L940.01 301.749C939.068 307.413 935.608 312.344 930.601 315.155C929.611 315.71 928.574 316.176 927.501 316.545L926.041 317.049C919.906 319.163 913.255 319.251 907.066 317.301L905.371 316.767C903.756 316.258 902.222 315.523 900.814 314.582C897.124 312.115 894.485 308.363 893.411 304.057Z" fill="#FFE5F6" stroke="black" stroke-width="4"/>
<path d="M839.329 304.057L835.564 288.957H888.054L885.928 301.749C884.986 307.413 881.526 312.344 876.519 315.155C875.529 315.71 874.492 316.176 873.419 316.545L871.959 317.049C865.824 319.163 859.173 319.251 852.984 317.301L851.289 316.767C849.674 316.258 848.14 315.523 846.732 314.582C843.042 312.115 840.403 308.363 839.329 304.057Z" fill="#F3B9D5" stroke="black" stroke-width="4"/>
<path d="M784.415 304.057L780.65 288.957H833.14L831.014 301.749C830.072 307.413 826.612 312.344 821.605 315.155C820.615 315.71 819.578 316.176 818.505 316.545L817.045 317.049C810.91 319.163 804.259 319.251 798.07 317.301L796.374 316.767C794.76 316.258 793.226 315.523 791.818 314.582C788.128 312.115 785.489 308.363 784.415 304.057Z" fill="#FFE5F6" stroke="black" stroke-width="4"/>
<rect x="760.953" y="729.402" width="305.516" height="63.5683" fill="#F3B9D5" stroke="black" stroke-width="4"/>
<rect x="760.953" y="793.633" width="305.516" height="9.34682" fill="white" stroke="black" stroke-width="4"/>
<rect x="-2.00044" y="1.99955" width="483.145" height="9.31253" transform="matrix(-0.000221366 1 -1 -0.000222507 762.292 321.856)" fill="white" stroke="black" stroke-width="4"/>
<path d="M1076.45 318.211L1076.45 802.969L1067.14 802.967L1067.25 318.211L1076.45 318.211Z" fill="white" stroke="black" stroke-width="4"/>
<path d="M1062.31 304.057L1058.55 288.957H1111.04L1108.91 301.749C1107.97 307.413 1104.51 312.344 1099.5 315.155C1098.51 315.71 1097.48 316.176 1096.4 316.545L1094.94 317.049C1088.81 319.163 1082.16 319.251 1075.97 317.301L1074.27 316.767C1072.66 316.258 1071.12 315.523 1069.72 314.582C1066.03 312.115 1063.39 308.363 1062.31 304.057Z" fill="#F3B9D5" stroke="black" stroke-width="4"/>
<ellipse cx="108.333" cy="704.865" rx="41.8854" ry="7.52119" fill="black"/>
<path d="M107.818 487.148L107.037 705.188" stroke="black" stroke-width="5"/>
<path d="M125.244 441.894L128.668 442.938C132.06 444.513 134.147 448.007 133.919 451.747L133.798 453.742C133.238 462.94 129.755 471.718 123.855 478.797L117.895 485.948C112.916 491.922 111.756 500.202 114.9 507.314L117.862 514.016C120.429 519.822 124.289 524.965 129.148 529.051L131.656 531.16C132.427 531.808 133.06 532.602 133.52 533.497L134.79 535.969C137.303 540.859 138.942 546.151 139.632 551.605V558.642V565.06V573.618V573.916C139.632 577.291 138.453 580.56 136.298 583.157C135.427 584.207 134.133 584.815 132.769 584.815H97.7481C88.8224 584.815 82.016 576.828 83.4317 568.015L86.169 550.976C86.8283 546.872 86.9982 542.704 86.6753 538.56C85.8495 527.963 88.3204 517.369 93.7494 508.23L94.685 506.655C98.1577 500.81 97.8225 493.459 93.8322 487.954L86.5585 477.919C81.7014 471.218 77.9619 463.774 75.4855 455.877L74.5209 452.801C73.2448 448.732 75.4177 444.385 79.4327 442.96L87.6809 440.546C91.3038 439.486 93.7933 436.163 93.7933 432.388V420.088C93.7933 419.26 94.4649 418.588 95.2933 418.588H102.68H111.222C112.05 418.588 112.722 419.26 112.722 420.088V432.065C112.722 436.023 115.453 439.457 119.309 440.347L121.549 440.864L125.244 441.894Z" fill="white" stroke="black" stroke-width="3"/>
<path d="M75.9127 449.046H128.672C132.781 449.046 136.302 451.986 137.035 456.03L138.503 464.128C138.66 464.991 138.271 465.862 137.523 466.321L133.904 468.542C126.206 473.269 121.134 481.297 120.174 490.279C119.361 497.877 121.565 505.491 126.311 511.48L133.834 520.974L140.649 530.295C145.301 536.657 149.172 543.554 152.18 550.839L153.897 554.996C155.76 559.509 157.286 564.155 158.461 568.895L161.203 579.961V587.336C161.203 592.03 157.398 595.836 152.703 595.836H58.2568C53.5624 595.836 49.7568 592.03 49.7568 587.336V579.912L50.8794 573.684C52.3075 565.761 54.7017 558.042 58.0084 550.701L62.9096 539.821L72.0607 524.129C73.3025 521.999 74.719 519.977 76.2955 518.082L81.9543 511.28C86.8028 505.452 89.0043 497.868 88.0297 490.35C86.8624 481.346 81.2864 473.514 73.1592 469.465L66.9025 466.347C65.9026 465.849 65.3822 464.724 65.6504 463.639L67.6612 455.506C68.5993 451.712 72.0041 449.046 75.9127 449.046Z" fill="#FFE5F6" stroke="black" stroke-width="3"/>
<path d="M74.5053 449.046H132.64C136.413 449.046 139.734 451.533 140.796 455.152L144.111 466.446C144.527 467.863 143.014 469.071 141.724 468.351L137.705 466.108C134.716 464.44 130.991 464.906 128.505 467.258C126.942 468.737 124.591 469.005 122.736 467.915L120.81 466.784C117.266 464.702 112.84 464.819 109.405 467.069C106.838 468.751 103.516 468.784 100.924 467.149L100.604 466.947C97.1501 464.768 92.732 464.846 89.3568 467.146C86.9688 468.773 83.843 468.828 81.3991 467.286L80.6462 466.811C77.3221 464.714 73.1629 464.44 69.5928 466.084L64.1874 468.572C63.8121 468.745 63.401 468.414 63.4901 468.01L66.2053 455.714C67.0652 451.819 70.5171 449.046 74.5053 449.046Z" fill="#FFE5F6" stroke="black" stroke-width="3"/>
<path d="M315.568 624.787L306.439 644.196H213.496L200.626 624.047L197.411 617.158L196.041 612.736C195.592 611.284 195.363 609.774 195.363 608.254C195.363 601.52 199.808 595.594 206.273 593.71L209.619 592.735L223.939 588.785L241.772 586.489H258.716H275.16L292.336 588.784L304.077 591.951C305.886 592.439 307.621 593.17 309.235 594.123L310.754 595.021C315.436 597.787 318.539 602.599 319.127 608.005C319.312 609.704 319.244 611.422 318.924 613.102L318.148 617.173L315.568 624.787Z" fill="white" stroke="black" stroke-width="3"/>
<rect x="213.394" y="645.37" width="93.2939" height="3.63948" fill="#FFE5F6" stroke="black" stroke-width="2"/>
<rect x="213.394" y="648.355" width="93.2939" height="3.63948" fill="#FFE5F6" stroke="black" stroke-width="2"/>
<path d="M223.246 685.235C221.372 674.218 223.29 662.919 228.641 653.168H223.411L217.557 660.731C214.516 664.66 214.132 670.031 216.583 674.353L220.404 681.09C222.762 685.249 221.068 690.536 216.732 692.55L214.439 693.614C214.008 693.814 213.731 694.247 213.731 694.724C213.731 695.399 214.279 695.947 214.955 695.947H218.938C222.2 695.947 224.658 692.982 224.054 689.776L223.688 687.832L223.685 687.819L223.683 687.806L223.246 685.235Z" fill="white" stroke="black" stroke-width="3"/>
<path d="M298.49 685.235C300.364 674.218 298.446 662.919 293.094 653.168H298.324L304.178 660.731C307.219 664.66 307.603 670.031 305.152 674.353L301.332 681.09C298.973 685.249 300.667 690.536 305.004 692.55L307.296 693.614C307.728 693.814 308.004 694.247 308.004 694.724C308.004 695.399 307.456 695.947 306.781 695.947H302.798C299.536 695.947 297.077 692.982 297.681 689.776L298.048 687.832L298.05 687.819L298.052 687.806L298.49 685.235Z" fill="white" stroke="black" stroke-width="3"/>
<path d="M214.889 699.535L214.887 699.522L214.885 699.508L213.449 691.096C211.328 678.671 213.837 665.899 220.502 655.201L221.768 653.168H213.789L205.85 663.389C201.686 668.751 201.16 676.093 204.518 681.994L209.588 690.903C212.589 696.178 210.439 702.891 204.931 705.44L201.881 706.851C201.135 707.196 200.657 707.944 200.657 708.766C200.657 709.931 201.602 710.875 202.767 710.875H208.078C212.729 710.875 216.234 706.645 215.37 702.075L214.889 699.535Z" fill="white" stroke="black" stroke-width="3"/>
<path d="M305.356 699.535L305.358 699.522L305.361 699.508L306.797 691.096C308.917 678.671 306.408 665.899 299.743 655.201L298.477 653.168H306.457L314.395 663.389C318.559 668.751 319.085 676.093 315.727 681.994L310.658 690.903C307.656 696.178 309.807 702.891 315.314 705.44L318.364 706.851C319.11 707.196 319.588 707.944 319.588 708.766C319.588 709.931 318.643 710.875 317.478 710.875H312.167C307.516 710.875 304.011 706.645 304.875 702.075L305.356 699.535Z" fill="white" stroke="black" stroke-width="3"/>
<path d="M252.938 577.411L242.165 578.961L249.784 573.706L255.732 571.659L259.015 568.482L261.791 563.676L264.578 558.33L267.901 553.054L270.937 548.278C271.421 547.517 272.031 546.843 272.74 546.285L280.575 540.116C280.82 539.923 281.178 539.999 281.325 540.273L283.993 545.256C285.122 547.364 285.691 549.726 285.646 552.117V552.117C285.63 552.959 285.487 553.794 285.223 554.593L281.875 564.715C280.96 567.479 280.467 570.365 280.412 573.277L280.32 578.162L280.211 583.999L280.196 584.758L280.185 585.375L278.377 585.341L278.389 584.724L278.403 583.965L278.698 568.311L278.494 562.655C278.437 561.08 277.803 559.58 276.712 558.442V558.442C275.495 557.172 273.383 557.513 272.627 559.103L271.394 561.697L263.655 578.825C262.225 581.822 261.276 582.833 260.079 583.648C258.532 584.703 256.65 585.188 254.778 585.191C248.602 585.204 234.703 585.212 233.998 584.745C233.146 584.128 238.436 581.18 239.449 580.529C241.08 579.48 241.624 579.144 242.165 578.961C243.816 576.833 254.839 574.881 255.671 574.896C256.535 574.912 257.83 578.911 258.331 579.458C258.865 580.006 259.123 580.755 259.105 581.704L259.075 583.317C259.265 583.384 255.515 578.51 258.751 582.511C259.231 582.52 254.164 577.468 254.567 576.495C255.001 575.522 252.714 579.116 252.938 577.411Z" fill="black"/>
<path d="M877.164 650.697L869.784 666.389H794.146L783.718 650.063L781.106 644.466L779.992 640.869C779.633 639.709 779.45 638.502 779.45 637.288C779.45 631.906 783.003 627.17 788.169 625.664L790.902 624.867L802.585 621.645L817.123 619.773H830.954H844.376L858.377 621.644L867.956 624.228C869.411 624.62 870.806 625.208 872.104 625.975L873.345 626.708C877.097 628.925 879.584 632.781 880.055 637.113C880.204 638.475 880.149 639.852 879.892 641.198L879.262 644.507L877.164 650.697Z" fill="white" stroke="black" stroke-width="3"/>
<rect x="794.095" y="667.805" width="75.8833" height="2.60912" fill="#FFE5F6" stroke="black" stroke-width="2"/>
<rect x="794.095" y="670.245" width="75.8833" height="2.60912" fill="#FFE5F6" stroke="black" stroke-width="2"/>
<path d="M801.693 700.25C800.177 691.338 801.677 682.201 805.913 674.27H802.233L797.531 680.345C795.113 683.469 794.808 687.739 796.757 691.176L799.879 696.682C801.886 700.22 800.445 704.718 796.755 706.431L794.882 707.301C794.626 707.42 794.462 707.677 794.462 707.959C794.462 708.36 794.787 708.685 795.187 708.685H798.443C800.937 708.685 802.817 706.418 802.355 703.966L802.056 702.378L802.053 702.364L802.051 702.351L801.693 700.25Z" fill="white" stroke="black" stroke-width="3"/>
<path d="M863.73 700.25C865.246 691.338 863.746 682.201 859.511 674.27H863.191L867.892 680.345C870.31 683.469 870.616 687.739 868.667 691.176L865.544 696.682C863.538 700.22 864.979 704.718 868.669 706.431L870.542 707.301C870.798 707.42 870.962 707.677 870.962 707.959C870.962 708.36 870.637 708.685 870.236 708.685H866.981C864.487 708.685 862.607 706.418 863.069 703.966L863.368 702.378L863.371 702.364L863.373 702.351L863.73 700.25Z" fill="white" stroke="black" stroke-width="3"/>
<path d="M794.865 711.943L794.863 711.929L794.861 711.916L794.271 708.462C792.262 696.69 794.409 684.607 800.308 674.27H794.369L787.964 682.518C784.628 686.813 784.207 692.694 786.897 697.42L791.04 704.701C793.572 709.152 791.758 714.816 787.111 716.966L784.618 718.12C784.105 718.357 783.777 718.871 783.777 719.436C783.777 720.237 784.426 720.886 785.227 720.886H789.568C793.198 720.886 795.933 717.585 795.258 714.018L794.865 711.943Z" fill="white" stroke="black" stroke-width="3"/>
<path d="M869.342 711.943L869.344 711.929L869.346 711.916L869.936 708.462C871.945 696.69 869.798 684.607 863.899 674.27H869.838L876.243 682.518C879.579 686.813 880 692.694 877.311 697.42L873.167 704.701C870.635 709.152 872.449 714.816 877.096 716.966L879.589 718.12C880.102 718.357 880.43 718.871 880.43 719.436C880.43 720.237 879.781 720.886 878.98 720.886H874.639C871.009 720.886 868.274 717.585 868.949 714.018L869.342 711.943Z" fill="white" stroke="black" stroke-width="3"/>
<path d="M179.663 689.532H137.146C132.353 689.532 128.468 685.646 128.468 680.854V677.397C128.468 673.215 129.257 669.07 130.794 665.18L131.377 663.705C131.888 662.414 132.539 661.183 133.319 660.034C136.016 656.062 140.124 653.266 144.808 652.214L147.394 651.632L148.518 651.52C154.966 650.873 161.463 650.868 167.912 651.504L169.206 651.632L172.551 652.424C176.571 653.377 180.228 655.473 183.08 658.461C185.233 660.715 186.867 663.413 187.867 666.365L188.435 668.043C189.128 670.087 189.593 672.201 189.822 674.347L190.193 677.817C190.862 684.075 185.957 689.532 179.663 689.532Z" fill="#FFE5F6" stroke="black" stroke-width="4"/>
<path d="M145.775 656.727V651.888V646.677L146.147 641.838L146.373 640.703C146.84 638.36 147.475 636.054 148.272 633.802L149.117 631.415L150.71 628.221C151.491 626.655 152.677 625.313 154.132 624.34V624.34C154.866 623.85 155.667 623.456 156.505 623.176L156.928 623.035C158.376 622.551 159.929 622.474 161.417 622.813V622.813C162.608 623.085 163.725 623.615 164.688 624.366L165.178 624.748C166.098 625.466 166.9 626.324 167.553 627.291L169.164 629.674C170.03 630.957 170.794 632.306 171.447 633.709L171.605 634.049C172.575 636.132 173.298 638.321 173.76 640.572V640.572C174.162 642.527 174.364 644.518 174.364 646.514V650.027V653.749V656.913H169.538V650.027V647.562C169.538 645.858 169.387 644.158 169.089 642.481L169.009 642.036C168.743 640.542 168.337 639.077 167.796 637.659L167.182 636.048C166.53 634.339 165.569 632.764 164.347 631.403L163.362 630.305C163.026 629.93 162.635 629.608 162.203 629.348V629.348C161.415 628.874 160.512 628.623 159.591 628.623H159.327V628.623C158.014 628.743 156.794 629.351 155.908 630.328L155.828 630.416C155.563 630.709 155.329 631.029 155.131 631.371L154.501 632.463C153.761 633.744 153.188 635.115 152.796 636.541L151.902 639.79V639.79C151.412 642.612 151.159 645.511 151.159 648.375V650.957V656.727H145.775Z" fill="black"/>
<ellipse cx="148.559" cy="654.494" rx="1.29949" ry="1.30284" fill="#FFE5F6"/>
<ellipse cx="171.95" cy="654.494" rx="1.29949" ry="1.30284" fill="#FFE5F6"/>
<path d="M817.923 593.996L819.879 593.557C825.395 593.012 830.95 593.011 836.465 593.555L836.473 593.556L839.01 594.157C842.008 594.867 844.735 596.431 846.863 598.659C848.469 600.341 849.687 602.353 850.433 604.555L850.87 605.843C851.39 607.38 851.74 608.969 851.912 610.583L852.197 613.246C852.681 617.775 849.131 621.724 844.576 621.724H811.939C808.517 621.724 805.742 618.95 805.742 615.528V612.875C805.742 609.722 806.337 606.599 807.496 603.667L807.943 602.535C808.322 601.576 808.806 600.661 809.385 599.808C811.39 596.856 814.442 594.779 817.923 593.996Z" fill="#F3B9D5" stroke="black" stroke-width="4"/>
<path d="M818.562 597.007V593.293V589.292L818.848 585.578L818.858 585.525C819.325 583.182 819.96 580.876 820.757 578.624L821.128 577.577L822.35 575.125C822.95 573.923 823.86 572.893 824.977 572.147V572.147C825.541 571.77 826.156 571.468 826.799 571.253L827.123 571.144C828.235 570.773 829.427 570.714 830.57 570.974V570.974C831.484 571.183 832.341 571.59 833.08 572.166L833.456 572.459C834.163 573.01 834.778 573.669 835.28 574.411L836.516 576.241C837.181 577.225 837.767 578.261 838.269 579.338L838.39 579.599C839.134 581.198 839.69 582.879 840.044 584.607V584.607C840.353 586.107 840.508 587.636 840.508 589.168V591.864V594.721V597.15H836.803V591.864V589.972C836.803 588.664 836.688 587.359 836.458 586.072L836.397 585.73C836.193 584.583 835.881 583.458 835.466 582.37L834.995 581.133C834.494 579.821 833.757 578.613 832.819 577.568L832.062 576.725C831.804 576.438 831.504 576.19 831.173 575.991V575.991C830.568 575.626 829.874 575.434 829.168 575.434H828.965V575.434C827.957 575.526 827.02 575.993 826.34 576.743L826.279 576.81C826.075 577.035 825.896 577.281 825.744 577.544L825.26 578.382C824.693 579.365 824.253 580.417 823.951 581.512L823.265 584.006V584.006C822.886 586.193 822.695 588.408 822.695 590.627V592.578V597.007H818.562Z" fill="black"/>
<ellipse cx="820.699" cy="595.293" rx="0.99752" ry="1.00009" fill="#FFE5F6"/>
<ellipse cx="838.656" cy="595.293" rx="0.99752" ry="1.00009" fill="#FFE5F6"/>
<ellipse cx="961.386" cy="701.312" rx="49.654" ry="8.91616" fill="black"/>
<path d="M959.991 485.427L959.69 695.017" stroke="black" stroke-width="5"/>
<path d="M921.811 588.546L915.649 589.136C914.325 582.205 913.884 575.133 914.337 568.088L914.526 565.145L917.292 553.641C923.885 533.946 936.425 516.781 953.184 504.512L959.908 499.59L982.781 515.884C989.846 520.917 995.84 527.303 1000.42 534.672C1001.83 536.953 1003.02 539.369 1003.96 541.883L1008.39 553.693L1009.91 559.15C1011.11 563.429 1011.99 567.791 1012.54 572.2V578.818L1012 584.816C1011.82 586.756 1011.24 588.638 1010.3 590.343L1009.95 590.981C1008.69 593.25 1006.54 594.895 1004.03 595.522C1003.82 595.574 1003.6 595.601 1003.39 595.601H961.889L926.815 588.788C925.167 588.468 923.482 588.386 921.811 588.546ZM932.801 444.428C930.969 440.156 932.803 435.205 936.955 433.151L943.691 431.463C947.472 430.515 950.124 427.116 950.124 423.218V417.586C950.124 416.758 950.796 416.086 951.624 416.086H957.761H963.196C964.024 416.086 964.696 416.758 964.696 417.586V422.84C964.696 426.947 967.632 430.466 971.672 431.203L973.624 431.558L976.611 432.249L979.775 433.095C982.299 435.317 983.376 438.775 982.541 442.05L980.416 450.379C979.523 453.876 978.266 457.269 976.664 460.503L959.79 494.574L938.955 458.776L932.801 444.428Z" fill="white" stroke="black" stroke-width="3"/>
<path d="M1052.14 541.396C1059.02 553.46 1059.07 568.235 1052.3 580.335L1035.03 588.886L1014.39 594.959C1013.94 595.091 1013.48 595.185 1013.02 595.242L986.911 598.428L968.184 600.26C961.586 600.905 954.94 600.883 948.346 600.193L931.49 598.43L906.76 595.155L888.517 590.582C884.028 589.457 879.723 587.696 875.733 585.351L868.668 581.198C867.89 580.741 867.317 580.002 867.068 579.135C863.755 567.6 864.817 555.247 870.051 544.447L870.864 542.77C874.428 535.416 879.627 528.974 886.064 523.938L916.463 500.155L933.578 490.022C941.384 485.4 944.523 475.69 940.908 467.376L936.942 456.359L936.933 456.335L936.924 456.311L936.188 454.469C934.409 450.009 935.946 444.908 939.892 442.17C940.905 441.468 942.036 440.952 943.231 440.65C947.479 439.574 951.942 441.307 954.351 444.968L957.004 449.001L958.119 450.696L959.412 449.133L964.018 443.568C966.427 440.657 970.282 439.371 973.957 440.252L974.426 440.364C976.296 440.813 977.959 441.88 979.145 443.394C980.756 445.449 981.335 448.13 980.717 450.667L979.292 456.512L979.29 456.519L979.288 456.527L976.729 467.513C973.572 476.683 977.588 486.79 986.188 491.288L1004.61 500.924L1030.9 517.034C1038.31 521.572 1044.45 527.907 1048.75 535.452L1052.14 541.396Z" fill="black" stroke="black" stroke-width="3"/>
<path d="M976.157 479.646L976.962 481.665L961.06 483.131C959.973 483.231 958.879 483.232 957.792 483.134L941.368 481.654L942.039 479.862L959.303 480.943L959.444 480.952L959.584 480.941L976.157 479.646Z" fill="white" stroke="black" stroke-width="4"/>
<rect x="40.3037" y="140.875" width="307.085" height="16.2917" fill="#FFE5F6"/>
</svg>
