<svg width="414" height="617" viewBox="0 0 414 617" fill="none" xmlns="http://www.w3.org/2000/svg">
<path d="M361 575H407L363 607L361 575Z" fill="white"/>
<path d="M51.5723 110.419H410.53V575.175H51.5723V110.419Z" fill="white"/>
<path d="M2.45264 148.205H361.411V612.961H2.45264V148.205Z" fill="black"/>
<path fill-rule="evenodd" clip-rule="evenodd" d="M357.632 151.984H6.23114V609.183H357.632V151.984ZM2.45264 148.205V612.961H361.411V148.205H2.45264Z" fill="black"/>
<path fill-rule="evenodd" clip-rule="evenodd" d="M54.6535 110.842L88.1322 138.044L4.65197 151.957L4.03079 148.23L79.248 135.694L52.2708 113.775L54.6535 110.842Z" fill="black"/>
<path fill-rule="evenodd" clip-rule="evenodd" d="M332.592 132.257L408.162 112.371L409.123 116.025L341.11 133.923L360.655 148.582L358.388 151.605L332.592 132.257Z" fill="black"/>
<path fill-rule="evenodd" clip-rule="evenodd" d="M355.397 546.981L411.342 571.581L409.718 574.993L359.546 552.649L363.273 611.383L359.546 610.761L355.397 546.981Z" fill="black"/>
<path fill-rule="evenodd" clip-rule="evenodd" d="M83.6902 148.205V136.869H87.4688V148.205H83.6902Z" fill="black"/>
<path fill-rule="evenodd" clip-rule="evenodd" d="M333.072 148.204V133.09H336.85V148.204H333.072Z" fill="black"/>
<path fill-rule="evenodd" clip-rule="evenodd" d="M410.531 575.176L361.41 612.961L359.106 609.966L408.227 572.181L410.531 575.176Z" fill="black"/>
<path fill-rule="evenodd" clip-rule="evenodd" d="M166.463 49.6393C166.463 40.5527 169.556 31.7366 175.232 24.6412C179.87 18.8439 186.029 14.4511 193.021 11.9541L194.298 11.4981C204.395 7.89179 215.551 8.06918 225.549 11.9145C232.094 14.4319 238.022 18.4876 242.717 23.7048C249.584 31.3342 253.602 41.1028 254.09 51.3555L254.312 56.0123C254.946 69.3311 254.217 82.6798 252.138 95.8505L249.567 112.13L245.835 111.54L248.406 95.2612C250.445 82.3447 251.159 69.2537 250.537 56.192L250.316 51.5353C249.869 42.1532 246.192 33.214 239.909 26.2325C235.616 21.463 230.188 17.747 224.193 15.4412C215.029 11.9166 204.805 11.7577 195.569 15.0564L194.292 15.5125C187.96 17.7737 182.383 21.7517 178.183 27.0016C173.042 33.4271 170.242 41.4107 170.242 49.6393L170.242 67.4249C170.242 71.7417 170.564 76.0525 171.204 80.3215L175.889 111.555L172.152 112.115L167.467 80.882C166.799 76.4275 166.464 71.9293 166.464 67.4249L166.463 49.6393Z" fill="black" stroke="black" stroke-width="3"/>
<path fill-rule="evenodd" clip-rule="evenodd" d="M143.792 87.4245C143.792 78.3379 146.885 69.5218 152.561 62.4263C157.199 56.6291 163.358 52.2363 170.35 49.7393L171.626 49.2832C181.724 45.677 192.88 45.8543 202.878 49.6997C209.423 52.217 215.351 56.2728 220.046 61.49C226.912 69.1194 230.93 78.888 231.418 89.1407L231.64 93.7974C232.274 107.116 231.546 120.465 229.466 133.636L226.896 149.915L223.164 149.326L225.734 133.046C227.774 120.13 228.488 107.039 227.866 93.9771L227.644 89.3204C227.197 79.9383 223.521 70.9992 217.238 64.0177C212.945 59.2481 207.516 55.5322 201.521 53.2264C192.357 49.7018 182.134 49.5428 172.897 52.8416L171.62 53.2976C165.289 55.5589 159.711 59.5369 155.511 64.7868C150.371 71.2122 147.571 79.1958 147.571 87.4244L147.571 105.21C147.571 109.527 147.892 113.838 148.532 118.107L153.217 149.34L149.481 149.9L144.796 118.667C144.128 114.213 143.792 109.714 143.792 105.21L143.792 87.4245Z" fill="black" stroke="black" stroke-width="3"/>
<path fill-rule="evenodd" clip-rule="evenodd" d="M406.752 114.197H55.3508V571.397H406.752V114.197ZM51.5723 110.419V575.175H410.53V110.419H51.5723Z" fill="black"/>
<path d="M83.4433 139.14V149.127H16.8638L83.4433 139.14Z" fill="white"/>
<path d="M361.413 506.992L406.354 523.637L408.019 571.907L361.413 570.243V506.992Z" fill="white"/>
<path d="M53.4824 114.172L80.1143 135.811L53.4824 140.804V114.172Z" fill="black"/>
<path d="M333.117 132.482L356.42 149.127H334.781L333.117 140.804V132.482Z" fill="black"/>
</svg>
