<svg width="312" height="471" viewBox="0 0 312 471" fill="none" xmlns="http://www.w3.org/2000/svg">
<rect x="6.51793" y="378.347" width="178.765" height="82.2245" transform="rotate(0.848677 6.51793 378.347)" fill="black" stroke="black"/>
<path d="M185.059 462.324L186.243 382.368L291.78 270.164L290.79 336.933L185.059 462.324Z" fill="black" stroke="black"/>
<path d="M7.96924 372.958L130.355 269.103L288.094 271.439L184.324 377.271L7.96924 372.958Z" fill="white" stroke="black" stroke-width="5"/>
<path d="M184.491 398.82L184.491 377.97L291.962 273.636L291.962 286.696L184.491 398.82Z" fill="white" stroke="black" stroke-width="4"/>
<path d="M3.34838 395.825L3.34834 377.317L183.79 379.196L183.504 398.445L3.34838 395.825Z" fill="white" stroke="black" stroke-width="4"/>
<path d="M189.111 267.354L202.426 267.552L94.3486 374.797L78.3486 374.797L189.111 267.354Z" fill="#F3B9D5"/>
<path d="M255.093 308.284L244.959 318.122L73.5602 313.919L82.8084 305.733L255.093 308.284Z" fill="#F3B9D5"/>
<path d="M78.3484 374.797L94.3481 374.797L92.7595 462.358L78.0213 462.14L78.3484 374.797Z" fill="#F3B9D5"/>
<path d="M290.585 272.186L290.5 286L271.349 304.797L255.018 313.276L255.092 308.283L290.585 272.186Z" fill="white"/>
<path d="M245.348 317.797L248.644 318.545L199.348 366.797L245.348 317.797Z" fill="white"/>
<path d="M244.958 318.122L255.091 308.284L255.091 380.27L244.958 391.77L244.958 318.122Z" fill="#F3B9D5"/>
<path d="M16.5 369H84.6594L79 374.5H10L16.5 369Z" fill="white"/>
<path d="M97 372L129 373L156.5 372.5H185L183 375H94L97 372Z" fill="white"/>
<rect x="23.5179" y="281.347" width="178.765" height="82.2245" transform="rotate(0.848677 23.5179 281.347)" fill="black" stroke="black"/>
<path d="M202.059 365.324L203.243 285.368L308.78 173.164L307.79 239.933L202.059 365.324Z" fill="black" stroke="black"/>
<path d="M24.9692 275.958L147.355 172.103L305.094 174.439L201.324 280.271L24.9692 275.958Z" fill="white" stroke="black" stroke-width="5"/>
<path d="M201.491 301.804L201.491 280.97L308.962 176.636L308.962 189.199L201.491 301.804Z" fill="white" stroke="black" stroke-width="4"/>
<path d="M20.3484 298.825L20.3483 280.317L200.79 282.196L200.504 301.445L20.3484 298.825Z" fill="white" stroke="black" stroke-width="4"/>
<path d="M206.111 170.354L219.426 170.552L111.349 277.797L95.3486 277.797L206.111 170.354Z" fill="#F3B9D5"/>
<path d="M272.093 211.284L261.959 221.122L90.5602 216.919L99.8083 208.733L272.093 211.284Z" fill="#F3B9D5"/>
<path d="M95.3484 277.797L111.348 277.797L109.76 365.358L95.0213 365.14L95.3484 277.797Z" fill="#F3B9D5"/>
<path d="M307.585 175.186L307.5 182.5L307.5 188.5L288.349 207.797L272.018 216.276L272.092 211.283L307.585 175.186Z" fill="white"/>
<path d="M262.348 220.797L265.644 221.545L216.348 269.797L262.348 220.797Z" fill="white"/>
<path d="M261.958 221.122L272.091 211.284L272.091 283.27L261.958 294.77L261.958 221.122Z" fill="#F3B9D5"/>
<path d="M33.5 272H101.659L96 277.5H27L33.5 272Z" fill="white"/>
<path d="M114 275L146 276L173.5 275.5H202L200 278H111L114 275Z" fill="white"/>
<rect x="11.5179" y="189.347" width="178.765" height="82.2245" transform="rotate(0.848677 11.5179 189.347)" fill="black" stroke="black"/>
<path d="M190.059 273.324L191.243 193.368L296.78 81.1639L295.79 147.933L190.059 273.324Z" fill="black" stroke="black"/>
<path d="M12.9692 183.958L135.355 80.1028L293.094 82.4395L189.324 188.271L12.9692 183.958Z" fill="white" stroke="black" stroke-width="5"/>
<path d="M189.491 209.82L189.491 188.97L296.962 84.6365L296.962 89.5L296.962 97.6963L189.491 209.82Z" fill="white" stroke="black" stroke-width="4"/>
<path d="M8.34838 206.825L8.34834 188.317L188.79 190.196L188.504 209.445L8.34838 206.825Z" fill="white" stroke="black" stroke-width="4"/>
<path d="M194.111 78.3545L207.426 78.552L99.3486 185.797L83.3486 185.797L194.111 78.3545Z" fill="#F3B9D5"/>
<path d="M260.093 119.284L249.959 129.122L78.5602 124.919L87.8083 116.733L260.093 119.284Z" fill="#F3B9D5"/>
<path d="M83.3484 185.797L99.3481 185.797L97.7595 273.358L83.0213 273.14L83.3484 185.797Z" fill="#F3B9D5"/>
<path d="M295.585 83.1862L295.585 96L295.585 96.5L293.699 98.1403L276.349 115.797L260.018 124.276L260.092 119.283L295.585 83.1862Z" fill="white"/>
<path d="M250.348 128.797L253.644 129.545L204.348 177.797L250.348 128.797Z" fill="white"/>
<path d="M249.958 129.122L260.091 119.284L260.091 191.27L249.958 202.77L249.958 129.122Z" fill="#F3B9D5"/>
<path d="M21.5 180H89.6594L84 185.5H15L21.5 180Z" fill="white"/>
<path d="M102 183L134 184L161.5 183.5H190L188 186H99L102 183Z" fill="white"/>
<path d="M210.089 28L217.753 32.3964C220.395 33.9119 223.312 34.8876 226.334 35.2668L233.595 36.1779C234.587 36.3024 235.591 36.3024 236.583 36.1779L242.849 35.3917C246.528 34.93 250.078 33.7423 253.295 31.8973L260.089 28L251.756 98.2692L248.432 99.4119C239.764 102.392 230.37 102.525 221.621 99.7902L216.756 98.2692L210.089 28Z" fill="black"/>
<path d="M261.5 24.5271C261.5 26.9726 259.539 30.4231 254.785 33.4077C250.147 36.32 243.228 38.5 234.422 38.5C225.613 38.5 218.195 36.3174 213.055 33.3584C210.482 31.8773 208.544 30.239 207.275 28.6484C205.995 27.0444 205.5 25.6285 205.5 24.5271C205.5 22.4323 207.453 19.6661 212.82 17.2878C217.973 15.0046 225.462 13.5 234.422 13.5C243.386 13.5 250.377 15.006 255.027 17.2531C259.767 19.5438 261.5 22.2641 261.5 24.5271Z" fill="white" stroke="black" stroke-width="5"/>
<path d="M259.589 12.4444C259.589 14.5787 257.652 17.8106 253.069 20.6807C248.65 23.4477 242.294 25.5 234.807 25.5C227.312 25.5 220.568 23.4434 215.759 20.6398C213.353 19.2371 211.503 17.6893 210.282 16.1937C209.044 14.6762 208.589 13.3876 208.589 12.4444C208.589 11.5618 208.991 10.5184 210.135 9.34674C211.289 8.16364 213.083 6.98375 215.494 5.93878C220.309 3.85236 227.135 2.5 234.807 2.5C242.479 2.5 248.918 3.85265 253.341 5.91138C257.928 8.04667 259.589 10.5228 259.589 12.4444Z" fill="white" stroke="black" stroke-width="5"/>
<path d="M240.089 20C240.089 21.1046 236.93 22 235.089 22C233.248 22 230.089 21.1046 230.089 20C230.089 18.8954 233.248 18 235.089 18C236.93 18 240.089 18.8954 240.089 20Z" fill="black"/>
<line x1="210.089" y1="13" x2="260.089" y2="13" stroke="black" stroke-width="4"/>
<path d="M215.245 71.557L212.364 45.3895L221.976 46.9273C230.663 48.3172 239.515 48.3172 248.202 46.9273L257.814 45.3895L254.932 71.557L247.804 72.7832C239.389 74.2309 230.789 74.2309 222.374 72.7832L215.245 71.557Z" fill="white" stroke="black" stroke-width="4"/>
</svg>
