<svg width="420" height="625" viewBox="0 0 420 625" fill="none" xmlns="http://www.w3.org/2000/svg">
<path d="M52.127 111.08H416.488V582.831H52.127V111.08Z" fill="white"/>
<path d="M2.2666 149.434H366.628V621.185H2.2666V149.434Z" fill="black"/>
<path fill-rule="evenodd" clip-rule="evenodd" d="M362.792 153.269H6.10198V617.35H362.792V153.269ZM2.2666 149.434V621.185H366.628V149.434H2.2666Z" fill="black"/>
<path fill-rule="evenodd" clip-rule="evenodd" d="M55.2541 111.509L89.2367 139.12L4.49995 153.243L3.86942 149.46L80.2188 136.735L52.8355 114.486L55.2541 111.509Z" fill="black"/>
<path fill-rule="evenodd" clip-rule="evenodd" d="M337.374 133.247L414.081 113.061L415.057 116.77L346.02 134.938L365.86 149.817L363.559 152.886L337.374 133.247Z" fill="black"/>
<path fill-rule="evenodd" clip-rule="evenodd" d="M360.526 554.213L417.313 579.183L415.664 582.646L364.737 559.966L368.521 619.583L364.737 618.953L360.526 554.213Z" fill="black"/>
<path fill-rule="evenodd" clip-rule="evenodd" d="M84.7281 149.434V137.928H88.5635V149.434H84.7281Z" fill="black"/>
<path fill-rule="evenodd" clip-rule="evenodd" d="M337.863 149.434V134.092H341.698V149.434H337.863Z" fill="black"/>
<path fill-rule="evenodd" clip-rule="evenodd" d="M416.487 582.831L366.628 621.185L364.289 618.145L414.149 579.791L416.487 582.831Z" fill="black"/>
<path fill-rule="evenodd" clip-rule="evenodd" d="M168.747 49.3845C168.747 40.1611 171.886 31.2123 177.648 24.0101C182.356 18.1255 188.607 13.6666 195.704 11.132L197 10.6692C207.25 7.00859 218.574 7.18865 228.722 11.0919C235.365 13.6471 241.383 17.7639 246.149 23.0596C253.119 30.8039 257.197 40.7195 257.692 51.1265L257.918 55.8534C258.561 69.3726 257.822 82.9223 255.711 96.2913L253.102 112.815L249.313 112.217L251.923 95.6931C253.993 82.5822 254.718 69.2941 254.086 56.0358L253.861 51.309C253.408 41.7857 249.676 32.712 243.298 25.6254C238.941 20.784 233.43 17.0121 227.345 14.6716C218.043 11.094 207.666 10.9327 198.29 14.2811L196.994 14.744C190.568 17.0392 184.906 21.0771 180.643 26.406C175.425 32.9282 172.583 41.032 172.583 49.3845L172.583 67.4378C172.583 71.8196 172.909 76.1952 173.559 80.5285L178.314 112.232L174.521 112.801L169.766 81.0975C169.088 76.5758 168.747 72.01 168.747 67.4378L168.747 49.3845Z" fill="black" stroke="black" stroke-width="3"/>
<path fill-rule="evenodd" clip-rule="evenodd" d="M145.736 87.739C145.736 78.5156 148.875 69.5668 154.637 62.3646C159.344 56.48 165.596 52.0211 172.693 49.4865L173.989 49.0236C184.239 45.3631 195.562 45.5431 205.711 49.4464C212.354 52.0016 218.372 56.1184 223.138 61.4141C230.107 69.1584 234.186 79.074 234.681 89.481L234.906 94.2079C235.55 107.727 234.811 121.277 232.7 134.646L230.091 151.17L226.302 150.572L228.911 134.048C230.982 120.937 231.707 107.649 231.075 94.3903L230.85 89.6635C230.397 80.1402 226.665 71.0665 220.287 63.9798C215.93 59.1385 210.419 55.3666 204.334 53.0261C195.032 49.4485 184.655 49.2872 175.279 52.6356L173.983 53.0985C167.556 55.3937 161.895 59.4316 157.632 64.7605C152.414 71.2827 149.571 79.3865 149.571 87.739L149.571 105.792C149.571 110.174 149.898 114.55 150.548 118.883L155.303 150.586L151.51 151.155L146.755 119.452C146.076 114.93 145.736 110.365 145.736 105.792L145.736 87.739Z" fill="black" stroke="black" stroke-width="3"/>
<path fill-rule="evenodd" clip-rule="evenodd" d="M412.652 114.915H55.9623V578.996H412.652V114.915ZM52.127 111.08V582.831H416.488V111.08H52.127Z" fill="black"/>
<path d="M54.8706 115.062L82.4605 136.157L54.8705 142.707L54.8706 115.062Z" fill="black"/>
<path d="M85.193 139.805V149L58.9797 150L18 151L58.9797 144.174L85.193 139.805Z" fill="white"/>
<path d="M340.772 135.436L366.986 152.912H340.772V135.436Z" fill="black"/>
<path d="M366.188 514.327L411.129 532.637L412.794 580.907L366.188 579.242V514.327Z" fill="white"/>
</svg>
